<svg width="200" height="121" viewBox="0 0 200 121" fill="none" xmlns="http://www.w3.org/2000/svg">
<path fill-rule="evenodd" clip-rule="evenodd" d="M55.9544 112.076C50.6257 110.552 16.3783 95.2537 24.0619 76.0512C29.7224 61.9044 46.759 65.6349 50.8385 58.2279C54.0584 52.3871 52.7234 46.5887 51.9302 40.2739C51.1397 33.9962 64.1411 33.0059 65.6668 26.811C66.7364 22.4734 68.7817 17.9383 72.6677 15.7312C73.9584 14.9983 75.3846 14.6522 76.8439 14.6179C82.7642 14.479 85.7796 18.5225 88.1206 23.7399C89.6242 27.096 91.7689 32.0307 95.9618 31.9866C98.7947 31.9567 101.437 29.8888 103.452 27.9851C109.762 22.0222 118.523 6.48101 128.811 14.4807C135.038 19.3227 132.89 27.7867 130.989 34.3531C127.539 46.2741 120.994 60.5468 130.173 71.5334C134.369 76.5538 140.588 79.1027 146.839 79.1027C151.538 79.1027 156.237 77.7759 160.698 80.0146C169.595 84.4769 168.243 101.968 167.823 110.877L55.9544 112.076Z" fill="#EEEEEE"/>
<path fill-rule="evenodd" clip-rule="evenodd" d="M147.134 31.5947C139.307 40.054 139.82 53.2532 148.277 61.0783C151.904 64.4336 156.605 66.3937 161.541 66.6084L162.222 50.9753C160.987 50.9221 159.811 50.4322 158.904 49.5928C156.791 47.6374 156.662 44.3367 158.62 42.2214L147.134 31.5947ZM165.457 66.411C170.179 65.7216 174.522 63.4354 177.763 59.9332C185.342 51.7411 185.132 39.0346 177.285 31.0969L169.866 38.4318C173.789 42.3998 173.894 48.753 170.105 52.8481C168.484 54.6002 166.313 55.7423 163.953 56.0879L165.457 66.411ZM173.649 28.1629C166.318 23.4963 156.862 23.8636 149.914 29.0846L154.366 35.0096C158.846 31.6443 164.943 31.4075 169.67 34.4153L173.649 28.1629Z" fill="#EEEEEE"/>
<path fill-rule="evenodd" clip-rule="evenodd" d="M141.792 111.328C141.73 111.447 141.588 111.499 141.464 111.449C141.403 111.424 141.354 111.378 141.326 111.32C141.298 111.261 141.293 111.194 141.311 111.132C141.424 110.715 141.561 110.305 141.696 109.903C142.698 106.917 144.141 104.236 146.699 102.311C147.942 101.376 149.628 100.5 151.24 100.721C152.003 100.825 152.854 101.266 152.816 102.148C152.751 103.726 150.859 104.958 149.703 105.725C147.444 107.224 143.638 108.821 141.792 111.328Z" fill="#6993A4"/>
<mask id="mask0_22_382" style="mask-type:luminance" maskUnits="userSpaceOnUse" x="141" y="100" width="12" height="12">
<path d="M141.792 111.328C141.73 111.447 141.588 111.499 141.464 111.449C141.403 111.424 141.354 111.378 141.326 111.32C141.298 111.261 141.293 111.194 141.311 111.132C141.424 110.715 141.561 110.305 141.696 109.903C142.698 106.917 144.141 104.236 146.699 102.311C147.942 101.376 149.628 100.5 151.24 100.721C152.003 100.825 152.854 101.266 152.816 102.148C152.751 103.726 150.859 104.958 149.703 105.725C147.444 107.224 143.638 108.821 141.792 111.328Z" fill="white"/>
</mask>
<g mask="url(#mask0_22_382)">
<path fill-rule="evenodd" clip-rule="evenodd" d="M152.123 99.9095C152.339 100.449 152.248 101.087 152.135 101.638C152.036 102.135 151.896 102.64 151.641 103.081C150.713 104.674 148.762 105.344 147.036 105.606C146.256 105.724 145.007 105.803 144.395 105.163C143.975 104.722 144.279 104.298 144.304 103.803C144.31 103.672 144.206 103.641 144.096 103.674C143.499 103.849 142.987 104.699 142.667 105.171C141.706 106.596 141.093 108.32 140.839 110.015C140.75 110.611 140.617 111.445 141.001 111.974C141.484 112.637 142.582 112.13 143.141 111.868C143.303 111.791 143.466 111.709 143.626 111.626C143.811 111.531 143.996 111.431 144.177 111.331C144.462 111.175 144.74 111.009 145.017 110.842C146.708 109.832 154.787 105.633 155.852 103.647C156.962 101.574 154.042 100.613 152.123 99.9095Z" fill="#477282"/>
</g>
<path fill-rule="evenodd" clip-rule="evenodd" d="M139.415 111.153C139.453 111.222 139.516 111.275 139.59 111.301C139.665 111.327 139.747 111.325 139.82 111.294C139.894 111.263 139.953 111.207 139.987 111.135C140.021 111.063 140.027 110.981 140.004 110.906C139.894 110.496 139.758 110.095 139.627 109.701C138.509 106.37 136.899 103.379 134.045 101.231C132.659 100.188 130.778 99.2112 128.98 99.4576C128.129 99.574 127.179 100.066 127.221 101.05C127.295 102.809 129.405 104.184 130.695 105.04C133.172 106.685 137.322 108.436 139.415 111.153Z" fill="#6993A4"/>
<mask id="mask1_22_382" style="mask-type:luminance" maskUnits="userSpaceOnUse" x="127" y="99" width="14" height="13">
<path d="M139.415 111.153C139.453 111.222 139.516 111.275 139.59 111.301C139.665 111.327 139.747 111.325 139.82 111.294C139.894 111.263 139.953 111.207 139.987 111.135C140.021 111.063 140.027 110.981 140.004 110.906C139.894 110.496 139.758 110.095 139.627 109.701C138.509 106.37 136.899 103.379 134.045 101.231C132.659 100.188 130.778 99.2112 128.98 99.4576C128.129 99.574 127.179 100.066 127.221 101.05C127.295 102.809 129.405 104.184 130.695 105.04C133.172 106.685 137.322 108.436 139.415 111.153Z" fill="white"/>
</mask>
<g mask="url(#mask1_22_382)">
<path fill-rule="evenodd" clip-rule="evenodd" d="M127.995 98.5524C127.754 99.1537 127.856 99.8659 127.981 100.481C128.092 101.035 128.248 101.599 128.533 102.091C129.568 103.868 131.744 104.615 133.669 104.907C134.539 105.039 135.933 105.127 136.615 104.413C137.084 103.921 136.745 103.448 136.717 102.896C136.711 102.749 136.826 102.715 136.949 102.752C137.615 102.947 138.186 103.895 138.543 104.422C139.615 106.011 140.299 107.934 140.582 109.825C140.682 110.491 140.831 111.421 140.401 112.01C139.863 112.75 138.638 112.184 138.014 111.892C137.833 111.806 137.652 111.716 137.474 111.623C137.267 111.516 137.061 111.405 136.859 111.294C136.541 111.12 136.23 110.934 135.922 110.748C134.036 109.621 125.023 104.937 123.835 102.722C122.596 100.409 125.854 99.3369 127.995 98.5524Z" fill="#477282"/>
</g>
<path fill-rule="evenodd" clip-rule="evenodd" d="M140.34 111.065C140.321 111.176 140.393 111.282 140.501 111.31C140.61 111.339 140.723 111.278 140.759 111.171C141.062 110.271 141.292 109.34 141.513 108.437C142.567 104.143 142.87 99.8798 141.282 95.675C140.511 93.6327 139.17 91.328 137.093 90.3795C136.109 89.9299 134.768 89.8128 134.151 90.8876C133.044 92.8074 134.362 95.6898 135.157 97.4676C136.83 101.214 140.551 106.447 140.34 111.065Z" fill="#6993A4"/>
<mask id="mask2_22_382" style="mask-type:luminance" maskUnits="userSpaceOnUse" x="133" y="90" width="10" height="22">
<path d="M140.34 111.065C140.321 111.176 140.393 111.282 140.501 111.31C140.61 111.339 140.723 111.278 140.759 111.171C141.062 110.271 141.292 109.34 141.513 108.437C142.567 104.143 142.87 99.8798 141.282 95.675C140.511 93.6327 139.17 91.328 137.093 90.3795C136.109 89.9299 134.768 89.8128 134.151 90.8876C133.044 92.8074 134.362 95.6898 135.157 97.4676C136.83 101.214 140.551 106.447 140.34 111.065Z" fill="white"/>
</mask>
<g mask="url(#mask2_22_382)">
<path fill-rule="evenodd" clip-rule="evenodd" d="M136.655 88.7537C135.993 89.2304 135.622 90.0562 135.341 90.794C135.086 91.4584 134.872 92.1623 134.844 92.8772C134.747 95.4628 136.558 97.7221 138.408 99.3294C139.243 100.056 140.666 101.088 141.872 100.788C142.701 100.581 142.66 99.8495 143.002 99.2439C143.093 99.0839 143.24 99.125 143.346 99.2472C143.922 99.9027 143.89 101.296 143.915 102.096C143.984 104.507 143.417 107.012 142.445 109.212C142.102 109.987 141.634 111.076 140.781 111.413C139.71 111.838 138.789 110.411 138.323 109.68C138.188 109.467 138.057 109.249 137.93 109.03C137.782 108.778 137.637 108.52 137.498 108.266C137.277 107.867 137.072 107.461 136.869 107.055C135.623 104.587 129.196 93.5396 129.426 90.3848C129.666 87.092 133.85 88.1459 136.655 88.7537Z" fill="#477282"/>
</g>
<path fill-rule="evenodd" clip-rule="evenodd" d="M43.3834 110.68H169.929V111.511H43.3834V110.68Z" fill="#03222F"/>
<path fill-rule="evenodd" clip-rule="evenodd" d="M25.6002 110.784H39.1587V111.667H25.6002V110.784Z" fill="#03222F"/>
<path fill-rule="evenodd" clip-rule="evenodd" d="M72.9437 105.048C71.553 104.109 69.9013 103.512 68.3347 102.944C64.1622 101.436 59.9395 100.682 55.5749 101.82C53.4549 102.372 51.0126 103.466 49.8455 105.438C49.2924 106.372 49.0331 107.697 50.0401 108.428C51.8384 109.736 54.8548 108.727 56.7133 108.123C61.2551 106.646 68.0874 102.636 72.9437 105.048Z" fill="#6993A4"/>
<mask id="mask3_22_382" style="mask-type:luminance" maskUnits="userSpaceOnUse" x="49" y="101" width="24" height="9">
<path d="M72.9437 105.048C71.553 104.109 69.9013 103.512 68.3347 102.944C64.1622 101.436 59.9395 100.682 55.5749 101.82C53.4549 102.372 51.0126 103.466 49.8455 105.438C49.2924 106.372 49.0331 107.697 50.0401 108.428C51.8384 109.736 54.8548 108.727 56.7133 108.123C61.2551 106.646 68.0874 102.636 72.9437 105.048Z" fill="white"/>
</mask>
<g mask="url(#mask3_22_382)">
<path fill-rule="evenodd" clip-rule="evenodd" d="M48.1766 105.703C48.5821 106.413 49.3667 106.871 50.0732 107.23C50.7091 107.555 51.3888 107.844 52.0993 107.947C54.6693 108.318 57.1161 106.752 58.9164 105.076C59.73 104.32 60.9115 103.009 60.7399 101.774C60.6211 100.924 59.8871 100.888 59.3191 100.482C59.169 100.374 59.2256 100.232 59.3588 100.14C60.0741 99.6341 61.4607 99.8142 62.262 99.8741C64.6753 100.061 67.1149 100.893 69.2075 102.097C69.9444 102.521 70.9813 103.104 71.2274 103.991C71.5371 105.105 70.0158 105.872 69.2368 106.26C69.0099 106.372 68.7784 106.48 68.5464 106.584C68.2788 106.704 68.0066 106.821 67.738 106.933C67.3164 107.111 66.8889 107.273 66.4631 107.432C63.8675 108.413 52.1605 113.654 49.0366 113.09C45.7763 112.5 47.2722 108.437 48.1766 105.703Z" fill="#477282"/>
</g>
<path fill-rule="evenodd" clip-rule="evenodd" d="M73.7033 104.09C72.4733 102.949 71.5156 101.477 70.6067 100.08C68.1891 96.36 66.494 92.4196 66.6089 87.9106C66.6651 85.7205 67.1747 83.0933 68.8293 81.5083C69.6128 80.7573 70.8447 80.2033 71.785 81.0178C73.4681 82.4713 73.1718 85.6381 73.0058 87.5854C72.6013 92.344 70.2503 99.9094 73.7033 104.09Z" fill="#6993A4"/>
<mask id="mask4_22_382" style="mask-type:luminance" maskUnits="userSpaceOnUse" x="66" y="80" width="8" height="25">
<path d="M73.7033 104.09C72.4733 102.949 71.5156 101.477 70.6067 100.08C68.1891 96.36 66.494 92.4196 66.6089 87.9106C66.6651 85.7205 67.1747 83.0933 68.8293 81.5083C69.6128 80.7573 70.8447 80.2033 71.785 81.0178C73.4681 82.4713 73.1718 85.6381 73.0058 87.5854C72.6013 92.344 70.2503 99.9094 73.7033 104.09Z" fill="white"/>
</mask>
<g mask="url(#mask4_22_382)">
<path fill-rule="evenodd" clip-rule="evenodd" d="M68.7073 79.823C69.4916 80.0562 70.116 80.7162 70.6259 81.3226C71.087 81.8679 71.5227 82.4641 71.7853 83.1323C72.7312 85.5506 71.7624 88.2895 70.5404 90.4238C69.9885 91.3882 68.9814 92.8367 67.7393 92.9507C66.885 93.0283 66.6826 92.3217 66.1582 91.8609C66.0191 91.7393 65.8937 91.8267 65.8339 91.9775C65.5041 92.7891 65.9949 94.0983 66.2355 94.8651C66.9664 97.1725 68.3318 99.3589 69.9801 101.123C70.5605 101.744 71.3643 102.621 72.284 102.659C73.4385 102.707 73.8399 101.051 74.0405 100.204C74.0976 99.958 74.1501 99.708 74.1985 99.4585C74.2549 99.1705 74.3068 98.8788 74.3551 98.5918C74.4324 98.1408 74.4928 97.6876 74.5513 97.2367C74.9162 94.486 77.3559 81.894 76.0964 78.9802C74.7805 75.9394 71.164 78.3205 68.7073 79.823Z" fill="#477282"/>
</g>
<path fill-rule="evenodd" clip-rule="evenodd" d="M71.9649 104.951C69.5493 102.928 67.0168 100.667 64.2449 98.9299C61.6186 97.2882 58.7769 96.1156 55.5935 96.1788C52.143 96.2449 48.889 97.66 45.6249 98.6502C41.9905 99.7513 38.3523 100.354 34.5011 98.6404C33.3381 98.1265 32.2616 97.4252 31.3469 96.5427C30.3726 95.6005 29.6311 94.4425 29.0504 93.2179C28.7702 92.6282 29.0239 91.9211 29.6141 91.642C30.2043 91.3629 30.9115 91.6143 31.1894 92.2063C31.6488 93.1736 32.2239 94.0964 32.9928 94.8427C33.7074 95.5334 34.5527 96.076 35.4611 96.4788C38.7442 97.9356 41.8411 97.3248 44.9391 96.3845C48.4073 95.3333 51.8811 93.8819 55.5484 93.8103C62.6783 93.674 68.3648 98.8458 73.4858 103.136C73.9865 103.558 74.0531 104.304 73.6322 104.804C73.2138 105.306 72.4677 105.371 71.9649 104.951Z" fill="#A6D2E4"/>
<mask id="mask5_22_382" style="mask-type:luminance" maskUnits="userSpaceOnUse" x="28" y="91" width="46" height="15">
<path d="M71.9649 104.951C69.5493 102.928 67.0168 100.667 64.2449 98.9299C61.6186 97.2882 58.7769 96.1156 55.5935 96.1788C52.143 96.2449 48.889 97.66 45.6249 98.6502C41.9905 99.7513 38.3523 100.354 34.5011 98.6404C33.3381 98.1265 32.2616 97.4252 31.3469 96.5427C30.3726 95.6005 29.6311 94.4425 29.0504 93.2179C28.7702 92.6282 29.0239 91.9211 29.6141 91.642C30.2043 91.3629 30.9115 91.6143 31.1894 92.2063C31.6488 93.1736 32.2239 94.0964 32.9928 94.8427C33.7074 95.5334 34.5527 96.076 35.4611 96.4788C38.7442 97.9356 41.8411 97.3248 44.9391 96.3845C48.4073 95.3333 51.8811 93.8819 55.5484 93.8103C62.6783 93.674 68.3648 98.8458 73.4858 103.136C73.9865 103.558 74.0531 104.304 73.6322 104.804C73.2138 105.306 72.4677 105.371 71.9649 104.951Z" fill="white"/>
</mask>
<g mask="url(#mask5_22_382)">
<path fill-rule="evenodd" clip-rule="evenodd" d="M30.5614 87.7538C30.5973 90.0748 37.2539 96.2353 37.929 98.4268C38.0924 98.9491 39.1855 100.421 38.8803 100.969C38.6436 101.392 37.8443 101.281 37.4653 101.239C36.1214 101.096 34.7879 100.547 33.561 100.016C30.3917 98.6503 26.9396 96.5448 24.9389 93.6657C24.5997 93.1809 24.2944 92.6465 24.1001 92.0858C23.2582 89.6333 25.7036 88.3191 27.7277 87.9688C28.6638 87.8082 29.6112 87.7599 30.5614 87.7538Z" fill="#79A5B6"/>
</g>
<path d="M36.4955 94.8551C32.6827 99.6612 25.6958 100.466 20.8897 96.6536C16.0836 92.8408 15.2784 85.8538 19.0912 81.0477C22.904 76.2416 29.891 75.4365 34.697 79.2493C39.5031 83.0621 40.3083 90.049 36.4955 94.8551Z" fill="#6993A4"/>
<path d="M34.144 92.9888C31.3616 96.496 26.2629 97.0836 22.7556 94.3012C19.2484 91.5188 18.6608 86.42 21.4432 82.9128C24.2256 79.4055 29.3243 78.818 32.8316 81.6004C36.3388 84.3828 36.9264 89.4815 34.144 92.9888Z" fill="white"/>
<path d="M27.369 90.928C27.5713 90.6297 27.6499 90.3362 27.6035 90.0472C27.5582 89.7588 27.3875 89.4054 27.0915 88.9868C26.7964 88.5689 26.5548 88.1886 26.3675 87.8464C26.1792 87.5036 26.0475 87.1673 25.9713 86.8367C25.8957 86.5086 25.888 86.1684 25.9487 85.8372C26.0088 85.5009 26.1603 85.1547 26.4021 84.7981C26.8192 84.1831 27.3575 83.8124 28.0171 83.686C28.6768 83.5596 29.3537 83.684 30.05 84.0605L30.8421 82.8924L31.7149 83.4843L30.9117 84.6687C31.4948 85.1969 31.8169 85.8071 31.8782 86.4995C31.9395 87.1919 31.7301 87.8932 31.2489 88.6028L29.6713 87.5329C29.9674 87.0962 30.0982 86.7082 30.0658 86.3701C30.0323 86.0313 29.8644 85.7594 29.5629 85.555C29.2645 85.3526 28.9759 85.2804 28.6972 85.3384C28.4184 85.3965 28.1784 85.575 27.9761 85.8734C27.7885 86.1499 27.7174 86.4258 27.7649 86.7023C27.8112 86.9782 27.9927 87.3508 28.3091 87.8204C28.6256 88.29 28.8714 88.6971 29.0466 89.0417C29.2219 89.3862 29.3397 89.7211 29.4012 90.0471C29.4619 90.3664 29.4587 90.6946 29.3916 91.0127C29.3244 91.3311 29.1786 91.6558 28.954 91.9869C28.5345 92.6056 28.0005 92.9766 27.3539 93.1012C26.7063 93.2251 26.0205 93.092 25.2973 92.7026L24.5607 93.7888L23.6929 93.2004L24.4259 92.1195C23.7336 91.5332 23.3356 90.8769 23.2309 90.1499C23.1263 89.4228 23.3268 88.6863 23.8327 87.9404L25.4103 89.0102C25.1167 89.4432 24.9944 89.845 25.0434 90.2156C25.0925 90.5862 25.3095 90.902 25.6955 91.1637C26.0153 91.3806 26.3252 91.4674 26.6264 91.4245C26.9265 91.381 27.174 91.2155 27.369 90.928Z" fill="#6993A4"/>
<path fill-rule="evenodd" clip-rule="evenodd" d="M64.0035 96.9856C64.4151 99.2809 62.4858 98.7347 61.8958 96.1458C61.3398 93.6945 60.2703 93.8637 58.4116 92.068C56.3985 90.1203 53.7214 89.0577 51.2831 87.7462C48.5691 86.2851 46.1397 84.5364 44.9212 81.3394C44.5512 80.376 44.3385 79.355 44.3228 78.3235C44.3073 77.2235 44.5492 76.1339 44.9214 75.0988C45.1004 74.6 45.6525 74.3412 46.151 74.521C46.6494 74.7009 46.9096 75.2518 46.728 75.7506C46.4344 76.5687 46.2325 77.4278 46.2432 78.2975C46.2548 79.1041 46.4264 79.9011 46.7146 80.6545C47.7557 83.3777 49.8799 84.8101 52.1944 86.0546C54.7846 87.4487 57.6083 88.6168 59.7488 90.6862C62.1949 93.0533 63.4155 93.7101 64.0035 96.9856Z" fill="#A6D2E4"/>
<mask id="mask6_22_382" style="mask-type:luminance" maskUnits="userSpaceOnUse" x="44" y="74" width="21" height="25">
<path d="M64.0035 96.9856C64.4151 99.2809 62.4858 98.7347 61.8958 96.1458C61.3398 93.6945 60.2703 93.8637 58.4116 92.068C56.3985 90.1203 53.7214 89.0577 51.2831 87.7462C48.5691 86.2851 46.1397 84.5364 44.9212 81.3394C44.5512 80.376 44.3385 79.355 44.3228 78.3235C44.3073 77.2235 44.5492 76.1339 44.9214 75.0988C45.1004 74.6 45.6525 74.3412 46.151 74.521C46.6494 74.7009 46.9096 75.2518 46.728 75.7506C46.4344 76.5687 46.2325 77.4278 46.2432 78.2975C46.2548 79.1041 46.4264 79.9011 46.7146 80.6545C47.7557 83.3777 49.8799 84.8101 52.1944 86.0546C54.7846 87.4487 57.6083 88.6168 59.7488 90.6862C62.1949 93.0533 63.4155 93.7101 64.0035 96.9856Z" fill="white"/>
</mask>
<g mask="url(#mask6_22_382)">
<path fill-rule="evenodd" clip-rule="evenodd" d="M48.9307 72.8405C47.6156 74.1898 47.8809 81.5468 47.0063 83.1897C46.7992 83.5827 46.5781 85.0542 46.0881 85.1921C45.7093 85.2981 45.3156 84.7746 45.1226 84.5326C44.4355 83.6776 43.9879 82.5961 43.5916 81.5856C42.5631 78.9803 41.7986 75.7885 42.3102 72.9891C42.395 72.5164 42.5278 72.0348 42.7392 71.602C43.6685 69.7137 45.8246 70.3686 47.1849 71.3329C47.8132 71.7797 48.3833 72.2972 48.9307 72.8405Z" fill="#79A5B6"/>
</g>
<path d="M48.2473 80.3181C43.2991 80.8752 38.8362 77.3154 38.2791 72.3672C37.7221 67.419 41.2819 62.956 46.2301 62.399C51.1783 61.842 55.6412 65.4017 56.1983 70.35C56.7553 75.2982 53.1956 79.7611 48.2473 80.3181Z" fill="#6993A4"/>
<path d="M47.9554 77.7852C44.4072 78.1847 41.207 75.6321 40.8076 72.0839C40.4081 68.5356 42.9607 65.3354 46.5089 64.936C50.0572 64.5366 53.2573 67.0892 53.6568 70.6374C54.0562 74.1856 51.5036 77.3858 47.9554 77.7852Z" fill="white"/>
<path d="M48.8949 72.272C48.7209 72.0361 48.5171 71.8965 48.2829 71.8538C48.0495 71.8106 47.7322 71.8458 47.3311 71.9595C46.9309 72.0727 46.5738 72.1551 46.2607 72.2062C45.9469 72.2578 45.6533 72.2678 45.3792 72.2368C45.1071 72.206 44.8442 72.1198 44.6066 71.9836C44.365 71.8466 44.1405 71.6368 43.9324 71.3548C43.5736 70.8686 43.4351 70.3554 43.5166 69.8154C43.5981 69.2753 43.8767 68.7899 44.3538 68.3577L43.6724 67.4343L44.3625 66.9251L45.0535 67.8615C45.6162 67.5573 46.1714 67.4754 46.7189 67.6157C47.2665 67.756 47.7476 68.1064 48.1616 68.6674L46.9143 69.5878C46.6595 69.2425 46.3973 69.0372 46.1293 68.9706C45.8604 68.9046 45.6064 68.9598 45.3681 69.1357C45.1322 69.3098 44.9987 69.5116 44.9678 69.741C44.9369 69.9705 45.0088 70.2028 45.1829 70.4387C45.3442 70.6574 45.5366 70.7866 45.7614 70.825C45.9855 70.8641 46.3204 70.8258 46.7662 70.7102C47.2119 70.5945 47.5906 70.5162 47.9023 70.475C48.2139 70.4339 48.5026 70.4341 48.7692 70.4752C49.0305 70.515 49.2814 70.6063 49.5072 70.7438C49.7331 70.8815 49.9427 71.0812 50.1358 71.343C50.4967 71.8321 50.6367 72.342 50.5574 72.8716C50.4772 73.4017 50.1895 73.8917 49.6952 74.3409L50.3289 75.1997L49.6428 75.7059L49.0123 74.8514C48.3753 75.2236 47.7644 75.3512 47.1785 75.2348C46.5926 75.1183 46.0821 74.7653 45.6469 74.1755L46.8942 73.2551C47.1468 73.5974 47.4218 73.7999 47.7193 73.8626C48.0168 73.9253 48.3177 73.8443 48.6229 73.6191C48.8757 73.4325 49.0261 73.2184 49.0747 72.9758C49.1226 72.7339 49.0626 72.4993 48.8949 72.272Z" fill="#6993A4"/>
<path d="M77.4335 115.135C89.3428 115.135 98.9971 113.083 98.9971 110.551C98.9971 108.019 89.3428 105.967 77.4335 105.967C65.5243 105.967 55.8699 108.019 55.8699 110.551C55.8699 113.083 65.5243 115.135 77.4335 115.135Z" fill="#A6D2E4"/>
<path d="M77.4335 111.745C89.3428 111.745 98.9971 109.693 98.9971 107.161C98.9971 104.63 89.3428 102.578 77.4335 102.578C65.5243 102.578 55.8699 104.63 55.8699 107.161C55.8699 109.693 65.5243 111.745 77.4335 111.745Z" fill="#6993A4"/>
<path d="M77.4335 108.039C89.3428 108.039 98.9971 105.987 98.9971 103.455C98.9971 100.923 89.3428 98.8711 77.4335 98.8711C65.5243 98.8711 55.8699 100.923 55.8699 103.455C55.8699 105.987 65.5243 108.039 77.4335 108.039Z" fill="#A6D2E4"/>
<path d="M77.4335 104.649C89.3428 104.649 98.9971 102.597 98.9971 100.065C98.9971 97.5336 89.3428 95.4813 77.4335 95.4813C65.5243 95.4813 55.8699 97.5336 55.8699 100.065C55.8699 102.597 65.5243 104.649 77.4335 104.649Z" fill="#6993A4"/>
<path d="M77.4335 100.943C89.3428 100.943 98.9971 98.8905 98.9971 96.3589C98.9971 93.8272 89.3428 91.7749 77.4335 91.7749C65.5243 91.7749 55.8699 93.8272 55.8699 96.3589C55.8699 98.8905 65.5243 100.943 77.4335 100.943Z" fill="#A6D2E4"/>
<path d="M77.4335 97.5532C89.3428 97.5532 98.9971 95.5009 98.9971 92.9692C98.9971 90.4376 89.3428 88.3853 77.4335 88.3853C65.5243 88.3853 55.8699 90.4376 55.8699 92.9692C55.8699 95.5009 65.5243 97.5532 77.4335 97.5532Z" fill="#6993A4"/>
<path d="M77.4335 93.8466C89.3428 93.8466 98.9971 91.7943 98.9971 89.2627C98.9971 86.731 89.3428 84.6787 77.4335 84.6787C65.5243 84.6787 55.8699 86.731 55.8699 89.2627C55.8699 91.7943 65.5243 93.8466 77.4335 93.8466Z" fill="#A6D2E4"/>
<path d="M77.4335 90.457C89.3428 90.457 98.9971 88.4047 98.9971 85.873C98.9971 83.3414 89.3428 81.2891 77.4335 81.2891C65.5243 81.2891 55.8699 83.3414 55.8699 85.873C55.8699 88.4047 65.5243 90.457 77.4335 90.457Z" fill="#6993A4"/>
<path d="M77.4335 86.7505C89.3428 86.7505 98.9971 84.6982 98.9971 82.1666C98.9971 79.6349 89.3428 77.5826 77.4335 77.5826C65.5243 77.5826 55.8699 79.6349 55.8699 82.1666C55.8699 84.6982 65.5243 86.7505 77.4335 86.7505Z" fill="#A6D2E4"/>
<path d="M77.4335 83.3608C89.3428 83.3608 98.9971 81.3085 98.9971 78.7768C98.9971 76.2452 89.3428 74.1929 77.4335 74.1929C65.5243 74.1929 55.8699 76.2452 55.8699 78.7768C55.8699 81.3085 65.5243 83.3608 77.4335 83.3608Z" fill="#6993A4"/>
<path fill-rule="evenodd" clip-rule="evenodd" d="M107.467 37.2913C106.37 35.7907 107.076 32.9821 109.454 31.6695C112.447 30.0192 114.317 29.9831 115.414 31.4836C116.51 32.9842 115.619 35.5028 113.426 37.1055C111.234 38.7081 108.563 38.7918 107.467 37.2913Z" fill="#FAD8BA"/>
<mask id="mask7_22_382" style="mask-type:luminance" maskUnits="userSpaceOnUse" x="106" y="30" width="10" height="9">
<path d="M107.467 37.2913C106.37 35.7907 107.076 32.9821 109.454 31.6695C112.447 30.0192 114.317 29.9831 115.414 31.4836C116.51 32.9842 115.619 35.5028 113.426 37.1055C111.234 38.7081 108.563 38.7918 107.467 37.2913Z" fill="white"/>
</mask>
<g mask="url(#mask7_22_382)">
<path fill-rule="evenodd" clip-rule="evenodd" d="M116.557 32.1867C116.32 32.9024 115.97 33.5652 115.51 34.2129C115.302 34.5092 115.087 34.834 114.793 35.0654C114.032 35.6585 112.912 35.802 112.087 35.6913C111.702 35.6401 111.359 35.5129 111.046 35.33C110.396 34.9471 109.719 34.0044 108.728 34.6995C108.577 34.8051 108.442 34.9368 108.328 35.0758C108.169 35.2689 108.041 35.4802 107.95 35.7009C107.855 35.923 107.795 36.1516 107.773 36.3784C107.58 38.2596 109.836 38.9251 111.502 38.792C113.252 38.6523 116.356 37.0309 117.305 35.0547C117.733 34.1643 116.2 32.8805 116.557 32.1867Z" fill="#D7B699"/>
</g>
<path fill-rule="evenodd" clip-rule="evenodd" d="M65.024 49.0262C65.024 49.0262 81.9047 55.7573 89.8459 54.0257C97.7855 52.2926 112.665 38.6307 112.665 38.6307C112.329 35.466 110.451 33.7178 106.466 33.9089C106.466 33.9089 92.3305 41.2009 87.5792 42.1041C84.2982 42.7274 81.8072 40.0004 77.954 39.3247C74.0803 38.6453 65.024 49.0262 65.024 49.0262Z" fill="#F25C05"/>
<mask id="mask8_22_382" style="mask-type:luminance" maskUnits="userSpaceOnUse" x="65" y="33" width="48" height="22">
<path d="M65.024 49.0262C65.024 49.0262 81.9047 55.7573 89.8459 54.0257C97.7855 52.2926 112.665 38.6307 112.665 38.6307C112.329 35.466 110.451 33.7178 106.466 33.9089C106.466 33.9089 92.3305 41.2009 87.5792 42.1041C84.2982 42.7274 81.8072 40.0004 77.954 39.3247C74.0803 38.6453 65.024 49.0262 65.024 49.0262Z" fill="white"/>
</mask>
<g mask="url(#mask8_22_382)">
<path fill-rule="evenodd" clip-rule="evenodd" d="M109.533 43.2921C108.276 44.6696 106.117 45.7165 104.392 46.6271C99.6586 49.1246 94.1079 50.9647 88.5582 51.4832C86.1304 51.7102 83.8102 51.5237 81.4794 51.0479C80.5186 50.8514 79.2369 50.4225 78.4199 51.2036C77.6057 51.9845 77.8344 53.2062 78.0504 54.0911C78.8264 57.2753 81.8182 58.588 85.711 58.2369C93.5291 57.5319 104.426 48.0523 109.533 43.2921Z" fill="#D23F00"/>
</g>
<path fill-rule="evenodd" clip-rule="evenodd" d="M79.525 40.032C77.6787 38.3483 66.9363 37.6581 64.4625 42.0796C61.3022 47.7257 60.5682 73.9074 60.5682 73.9074L87.2296 64.1246C87.2296 64.1246 83.136 43.3254 79.525 40.032Z" fill="#F25C05"/>
<mask id="mask9_22_382" style="mask-type:luminance" maskUnits="userSpaceOnUse" x="60" y="38" width="28" height="36">
<path d="M79.525 40.032C77.6787 38.3483 66.9363 37.6581 64.4625 42.0796C61.3022 47.7257 60.5682 73.9074 60.5682 73.9074L87.2296 64.1246C87.2296 64.1246 83.136 43.3254 79.525 40.032Z" fill="white"/>
</mask>
<g mask="url(#mask9_22_382)">
<path fill-rule="evenodd" clip-rule="evenodd" d="M57.0637 60.9531C58.4198 61.1858 63.6951 49.9205 63.6951 49.9205C63.6951 49.9205 67.0285 51.0388 69.879 54.5888C76.684 63.0559 87.3268 61.393 87.2292 63.5585C87.1153 66.0244 77.7282 64.5997 75.9463 65.9919C72.2956 68.8411 67.8476 70.9767 63.706 73.0187C62.3037 73.7104 60.2587 74.9089 58.6314 74.3228C56.1578 73.4313 56.0358 69.1888 56.0981 67.0985C56.1578 65.0204 56.5511 62.962 57.0637 60.9531Z" fill="#D23F00"/>
</g>
<path fill-rule="evenodd" clip-rule="evenodd" d="M108.064 100.315C113.301 98.7995 122.856 105.617 126.065 106.906C128.449 107.867 126.402 110.769 126.402 110.769C120.246 112.148 110.61 111.341 107.554 109.598C105.659 108.518 105.717 100.993 108.064 100.315Z" fill="#F29F05"/>
<mask id="mask10_22_382" style="mask-type:luminance" maskUnits="userSpaceOnUse" x="106" y="100" width="22" height="12">
<path d="M108.064 100.315C113.301 98.7995 122.856 105.617 126.065 106.906C128.449 107.867 126.402 110.769 126.402 110.769C120.246 112.148 110.61 111.341 107.554 109.598C105.659 108.518 105.717 100.993 108.064 100.315Z" fill="white"/>
</mask>
<g mask="url(#mask10_22_382)">
<path fill-rule="evenodd" clip-rule="evenodd" d="M123.862 105.177C123.254 107.781 118.5 111.907 109.144 105.733C107.657 104.751 106.828 103.018 105.902 101.047C105.273 99.7026 105.06 104.901 105.272 105.997C105.848 108.951 107.671 110.805 109.46 112.074C113.291 114.793 118.267 115.486 122.55 114.381C124.438 113.892 126.599 113.021 128.027 110.933C130.034 107.994 129.101 104.061 127.365 101.666C124.402 97.5774 127.898 105.383 123.862 105.177Z" fill="#B16800"/>
</g>
<path fill-rule="evenodd" clip-rule="evenodd" d="M95.2434 103.691C100.878 102.441 110.78 109.738 114.145 111.188C116.645 112.268 114.351 115.066 114.351 115.066C107.484 115.721 97.5182 114.84 94.3333 112.944C92.3592 111.769 92.7177 104.25 95.2434 103.691Z" fill="#F29F05"/>
<mask id="mask11_22_382" style="mask-type:luminance" maskUnits="userSpaceOnUse" x="93" y="103" width="23" height="13">
<path d="M95.2434 103.691C100.878 102.441 110.78 109.738 114.145 111.188C116.645 112.268 114.351 115.066 114.351 115.066C107.484 115.721 97.5182 114.84 94.3333 112.944C92.3592 111.769 92.7177 104.25 95.2434 103.691Z" fill="white"/>
</mask>
<g mask="url(#mask11_22_382)">
<path fill-rule="evenodd" clip-rule="evenodd" d="M111.868 109.349C111.119 111.921 105.895 115.805 96.1785 109.161C94.6349 108.105 93.8204 106.33 92.9128 104.313C92.2967 102.938 91.8641 108.123 92.0469 109.229C92.5437 112.211 94.4104 114.156 96.265 115.515C100.236 118.426 105.505 119.37 110.108 118.482C112.137 118.089 114.472 117.327 116.074 115.312C118.327 112.476 117.489 108.498 115.736 106.016C112.743 101.78 116.157 109.758 111.868 109.349Z" fill="#B16800"/>
</g>
<path fill-rule="evenodd" clip-rule="evenodd" d="M84.3037 82.2006C66.5544 82.7572 70.2062 69.0745 73.6247 66.4199C77.0431 63.7653 97.196 60.3532 104.81 66.2731C112.424 72.1928 119.308 101.939 119.308 101.939C115.05 104.635 108.349 107.711 98.7592 101.753L97.0307 78.5708C97.0307 78.5708 89.607 82.0343 84.3037 82.2006Z" fill="#03222F"/>
<path fill-rule="evenodd" clip-rule="evenodd" d="M74.2848 82.2007C56.5355 82.7573 59.7636 68.8831 63.6057 66.42C67.4478 63.9568 89.4674 61.0207 97.3396 67.422C105.212 73.8233 110.839 104.827 110.839 104.827C106.58 107.523 99.8791 110.6 90.2897 104.642L87.2292 80.2459C87.2292 80.2459 79.588 82.0344 74.2848 82.2007Z" fill="#023341"/>
<path fill-rule="evenodd" clip-rule="evenodd" d="M84.6957 69.2492C85.0393 67.4226 87.5702 66.015 90.1545 66.8504C93.4063 67.9033 94.7125 69.242 94.3689 71.0685C94.0254 72.8951 91.5795 73.9694 88.91 73.4673C86.2407 72.9652 84.3522 71.0757 84.6957 69.2492Z" fill="#FAD8BA"/>
<mask id="mask12_22_382" style="mask-type:luminance" maskUnits="userSpaceOnUse" x="84" y="66" width="11" height="8">
<path d="M84.6957 69.2492C85.0393 67.4226 87.5702 66.015 90.1545 66.8504C93.4063 67.9033 94.7125 69.242 94.3689 71.0685C94.0254 72.8951 91.5795 73.9694 88.91 73.4673C86.2407 72.9652 84.3522 71.0757 84.6957 69.2492Z" fill="white"/>
</mask>
<g mask="url(#mask12_22_382)">
<path fill-rule="evenodd" clip-rule="evenodd" d="M94.6386 72.3832C93.9552 72.7007 93.2319 72.8987 92.4452 73.007C92.0863 73.0575 91.7027 73.1234 91.3324 73.067C90.3794 72.9184 89.5086 72.2004 89.0241 71.5225C88.7985 71.2074 88.6562 70.87 88.575 70.5162C88.4094 69.7803 88.6336 68.6418 87.4487 68.395C87.2684 68.3573 87.08 68.349 86.9004 68.3608C86.6509 68.3771 86.4095 68.4287 86.1862 68.5133C85.959 68.5958 85.7514 68.7086 85.5708 68.8475C84.0669 69.9942 85.1257 72.0944 86.3634 73.2186C87.663 74.399 90.9692 75.552 93.06 74.8919C94.0017 74.5941 93.8887 72.5979 94.6386 72.3832Z" fill="#D7B699"/>
</g>
<path d="M92.5935 66.0478C92.4217 65.4448 91.3347 65.2259 90.1657 65.559C88.9966 65.892 88.1882 66.6509 88.36 67.2539C88.5318 67.857 89.6188 68.0758 90.7878 67.7428C91.9569 67.4097 92.7653 66.6509 92.5935 66.0478Z" fill="#FAD8BA"/>
<path fill-rule="evenodd" clip-rule="evenodd" d="M59.5052 42.6517C59.5052 42.6517 50.427 63.4394 61.2912 73.3045C66.3708 77.9179 86.7192 73.5398 86.7192 73.5398C88.9988 71.3191 89.2111 68.7623 86.5959 65.7484C86.5959 65.7484 71.5734 67.1978 68.5464 64.3638C65.5196 61.5321 69.7549 52.4479 68.4347 48.7557C65.7689 41.3047 59.5052 42.6517 59.5052 42.6517Z" fill="#F25C05"/>
<path fill-rule="evenodd" clip-rule="evenodd" d="M72.2304 34.9746L68.4631 35.2095C68.7394 36.6836 68.5809 38.0447 68.0304 39.3033C71.2019 44.5151 73.2249 44.272 73.3654 38.8516C71.7184 37.839 71.9065 36.313 72.2304 34.9746Z" fill="#FAD8BA"/>
<mask id="mask13_22_382" style="mask-type:luminance" maskUnits="userSpaceOnUse" x="68" y="34" width="6" height="10">
<path d="M72.2304 34.9746L68.4631 35.2095C68.7394 36.6836 68.5809 38.0447 68.0304 39.3033C71.2019 44.5151 73.2249 44.272 73.3654 38.8516C71.7184 37.839 71.9065 36.313 72.2304 34.9746Z" fill="white"/>
</mask>
<g mask="url(#mask13_22_382)">
<path fill-rule="evenodd" clip-rule="evenodd" d="M72.6759 36.9095C72.3139 37.545 71.8282 38.1342 71.2613 38.5982C70.836 38.9459 70.3643 39.2756 69.8697 39.5118C69.4117 39.7306 68.8847 39.8995 68.3732 39.8191C67.3252 39.6551 66.8123 38.4864 66.8666 37.5255C66.9816 35.5034 69.0033 33.8293 71.0026 34.3966C71.6206 34.5721 72.2389 36.4438 72.6759 36.9095Z" fill="#D7B699"/>
</g>
<path fill-rule="evenodd" clip-rule="evenodd" d="M70.0155 29.0234C71.8653 29.0234 73.3658 30.7667 73.3658 32.9138C73.3658 35.0612 73.1239 37.5411 71.2741 37.5411C69.4243 37.5411 66.6652 35.0612 66.6652 32.9138C66.6652 30.7667 68.1657 29.0234 70.0155 29.0234Z" fill="#FAD8BA"/>
<path fill-rule="evenodd" clip-rule="evenodd" d="M68.8693 31.7916C69.8256 32.4231 71.3071 32.4817 72.4016 32.4571C73.4297 32.4342 74.3888 32.265 75.3119 31.7996C75.9255 31.4906 76.4755 31.0592 76.9316 30.5465C80.3947 26.6613 74.281 20.7206 70.3618 24.0273C69.7869 24.511 69.3668 25.1351 69.0656 25.818C67.9296 25.1558 65.1491 25.1243 63.7008 26.4161C60.2626 29.4807 60.7932 32.0616 61.9817 35.4634C60.4256 35.9455 58.7286 37.2962 58.0404 38.6911C50.7437 53.4735 76.5888 50.2295 69.3917 35.1917C68.966 34.302 68.7587 32.786 68.8693 31.7916Z" fill="#03222F"/>
<path fill-rule="evenodd" clip-rule="evenodd" d="M124.156 15.7494C121.388 11.7871 110.255 18.124 109.533 23.1093C108.841 27.8859 114.137 40.1548 117.676 42.3714C121.772 44.9376 138.101 36.0499 133.935 33.5982C124.849 28.2511 127.452 20.4676 124.156 15.7494Z" fill="#A6D2E4"/>
<path d="M113.702 22.7267L114.789 22.1838L114.995 22.5954L113.395 23.3942L112.153 20.9073L112.666 20.6515L113.702 22.7267ZM114.709 21.5622C114.618 21.3788 114.572 21.1978 114.571 21.0192C114.57 20.8404 114.616 20.6786 114.709 20.5339C114.803 20.3891 114.937 20.273 115.113 20.1853C115.362 20.0609 115.604 20.0356 115.837 20.1094C116.071 20.1832 116.263 20.3466 116.412 20.5994L116.478 20.7242C116.619 21.0077 116.654 21.2746 116.581 21.525C116.509 21.7753 116.339 21.9669 116.072 22.1001C115.806 22.2331 115.551 22.2538 115.307 22.1622C115.062 22.0708 114.867 21.8781 114.721 21.5844L114.709 21.5622ZM115.221 21.3516C115.309 21.527 115.409 21.6445 115.521 21.7044C115.633 21.7642 115.751 21.7634 115.874 21.7021C115.994 21.6423 116.064 21.5499 116.085 21.4248C116.107 21.2996 116.067 21.1361 115.967 20.9346C115.881 20.7626 115.781 20.6463 115.666 20.5853C115.552 20.5242 115.434 20.5242 115.312 20.585C115.191 20.6453 115.121 20.7389 115.102 20.8657C115.083 20.9926 115.123 21.1546 115.221 21.3516ZM118.305 20.9429C118.26 20.91 118.216 20.863 118.173 20.8021C118.12 20.9949 117.997 21.1392 117.806 21.2346C117.625 21.325 117.449 21.3476 117.278 21.3022C117.106 21.2567 116.981 21.1544 116.901 20.995C116.804 20.7991 116.801 20.6126 116.894 20.4354C116.987 20.2581 117.17 20.1005 117.444 19.9624L117.671 19.849L117.618 19.7431C117.576 19.6576 117.52 19.6003 117.451 19.5709C117.381 19.5416 117.299 19.5505 117.204 19.5977C117.121 19.6391 117.066 19.6916 117.039 19.755C117.011 19.8186 117.015 19.885 117.05 19.9545L116.556 20.2008C116.503 20.0937 116.486 19.9783 116.507 19.8543C116.528 19.7301 116.585 19.612 116.68 19.5001C116.775 19.3879 116.897 19.2944 117.048 19.2193C117.275 19.1057 117.485 19.0728 117.675 19.1204C117.866 19.168 118.014 19.2954 118.117 19.5027L118.517 20.3037C118.606 20.4784 118.696 20.599 118.789 20.6649L118.804 20.6939L118.305 20.9429ZM117.725 20.8034C117.798 20.7671 117.857 20.7173 117.903 20.6542C117.948 20.591 117.972 20.5247 117.974 20.4553L117.815 20.1376L117.631 20.2297C117.384 20.353 117.295 20.5041 117.364 20.6829L117.377 20.7127C117.408 20.7742 117.455 20.814 117.518 20.8324C117.581 20.8506 117.65 20.841 117.725 20.8034ZM118.641 18.4666L118.763 18.6723C118.813 18.4414 118.949 18.2704 119.171 18.1596C119.367 18.0618 119.541 18.0466 119.694 18.1139C119.847 18.1812 119.982 18.3286 120.098 18.5563L120.694 19.7502L120.201 19.9966L119.611 18.8147C119.558 18.71 119.498 18.6453 119.429 18.6208C119.359 18.5963 119.272 18.6105 119.166 18.6633C119.027 18.7327 118.952 18.8439 118.942 18.9968L119.593 20.3L119.099 20.5465L118.177 18.6984L118.641 18.4666Z" fill="white"/>
<path fill-rule="evenodd" clip-rule="evenodd" d="M123.288 23.3796C123.256 23.4477 123.205 23.5452 123.155 23.6187C122.882 24.0055 122.421 24.4671 122.29 24.6024C122.137 24.7598 122.084 24.8147 121.925 24.9736C120.08 26.8347 118.124 28.6616 116.604 30.6639C116.289 31.0796 115.673 31.8224 115.465 32.4234C115.353 32.7474 115.355 33.0403 115.504 33.2546C115.651 33.4701 115.936 33.5298 116.291 33.4336C116.89 33.2712 117.731 32.6808 118.025 32.4861C119.728 31.3572 121.3 30.0864 122.921 28.8769C123.363 28.5463 123.82 28.2027 124.308 27.921L124.373 27.8831C124.307 27.9856 124.235 28.0776 124.209 28.1151C123.778 28.7215 123.256 29.3063 122.731 29.8815C121.14 31.6316 119.286 33.3273 117.959 35.1793C117.802 35.4003 117.653 35.6248 117.52 35.8535C117.421 36.0283 117.328 36.2094 117.269 36.3868C117.181 36.644 117.201 36.8217 117.259 36.9373C117.334 37.0813 117.476 37.1669 117.683 37.1738C117.864 37.1809 118.114 37.1209 118.382 37.0206C118.948 36.8096 119.62 36.4227 119.889 36.2689C120.38 35.9881 120.859 35.6879 121.328 35.3812C122.213 34.803 123.07 34.1927 123.894 33.5535C125.107 32.6119 126.767 31.0402 128.622 30.8189C128.739 30.8054 128.823 30.6981 128.81 30.5803C128.796 30.4624 128.688 30.3786 128.571 30.3921C126.637 30.6235 124.894 32.2333 123.631 33.2136C122.817 33.8457 121.969 34.4492 121.094 35.0208C120.629 35.3243 120.16 35.619 119.676 35.8959C119.363 36.0751 118.48 36.5888 117.907 36.7189C117.836 36.7366 117.765 36.7454 117.698 36.745C117.678 36.7429 117.659 36.7392 117.641 36.7341C117.638 36.7272 117.636 36.7124 117.637 36.7019C117.637 36.6539 117.65 36.596 117.675 36.5255C117.728 36.3719 117.807 36.2178 117.894 36.0666C118.019 35.8516 118.158 35.6387 118.31 35.4291C119.628 33.5898 121.467 31.909 123.05 30.1704C123.583 29.5834 124.12 28.9836 124.559 28.3641C124.617 28.282 124.848 27.973 124.903 27.7762C124.935 27.666 124.922 27.5731 124.888 27.5064C124.852 27.4391 124.794 27.3844 124.698 27.3606C124.629 27.3432 124.547 27.346 124.457 27.3721C124.329 27.4099 124.183 27.497 124.094 27.5482C123.59 27.8391 123.12 28.1917 122.662 28.5333C121.05 29.7368 119.483 31.0041 117.786 32.1286C117.549 32.2857 116.937 32.7209 116.413 32.9369C116.259 33.001 116.116 33.0458 115.995 33.0509C115.939 33.0527 115.885 33.0539 115.859 33.0128C115.812 32.944 115.808 32.8579 115.821 32.7634C115.839 32.6306 115.895 32.4842 115.97 32.3324C116.223 31.8208 116.689 31.2614 116.945 30.9245C118.456 28.9355 120.398 27.1237 122.23 25.2765C122.354 25.152 122.477 25.0271 122.599 24.9016C122.768 24.7279 123.437 24.0503 123.661 23.6155C123.722 23.4963 123.752 23.3883 123.753 23.3043C123.755 23.2009 123.72 23.1184 123.658 23.0551C123.603 22.9945 123.518 22.9559 123.417 22.9446C123.319 22.9347 123.18 22.9465 122.99 22.9986C122.884 23.0276 122.784 23.0622 122.68 23.1015C122.482 23.1785 122.286 23.2617 122.092 23.3511C121.767 23.4992 121.44 23.6521 121.124 23.8196C120.601 24.0966 120.085 24.395 119.574 24.6891C118.581 25.2595 117.606 25.8533 116.64 26.4606C115.236 27.3442 113.772 28.2301 112.462 29.2187C112.368 29.2896 112.348 29.425 112.42 29.5197C112.491 29.6144 112.626 29.6329 112.72 29.5618C114.022 28.5801 115.474 27.7017 116.87 26.8239C117.831 26.2195 118.799 25.6298 119.787 25.0621C120.296 24.7694 120.807 24.4737 121.325 24.1993C121.632 24.0368 121.954 23.8862 122.27 23.7426C122.456 23.658 122.643 23.5754 122.833 23.5034C122.924 23.4688 123.011 23.4384 123.103 23.413C123.169 23.3948 123.237 23.3849 123.288 23.3796Z" fill="white"/>
<path fill-rule="evenodd" clip-rule="evenodd" d="M113.908 26.8184C115.351 25.7842 117.009 24.9343 118.569 24.0897C118.594 24.0762 118.615 24.0581 118.633 24.0362C118.651 24.0142 118.664 23.9891 118.672 23.9621C118.68 23.9351 118.682 23.9068 118.679 23.8788C118.676 23.8508 118.668 23.8237 118.654 23.799C118.641 23.7741 118.623 23.7521 118.601 23.7343C118.579 23.7164 118.554 23.703 118.527 23.695C118.5 23.6869 118.472 23.6843 118.444 23.6872C118.416 23.6902 118.388 23.6986 118.364 23.7121C116.791 24.564 115.115 25.4251 113.657 26.4694C113.562 26.5379 113.538 26.673 113.607 26.7692C113.677 26.8653 113.811 26.8879 113.908 26.8184Z" fill="white"/>
<path fill-rule="evenodd" clip-rule="evenodd" d="M125.997 35.6647C125.642 35.9446 125.303 36.2363 125.004 36.562C124.805 36.7788 124.437 37.2548 124.313 37.6493C124.248 37.8569 124.25 38.0479 124.323 38.1942C124.381 38.3059 124.478 38.4 124.636 38.4566C124.957 38.5697 125.242 38.4629 125.479 38.2486C125.766 37.9879 125.974 37.5562 126.072 37.3253C126.279 36.849 126.388 36.3572 126.419 35.8749C126.642 35.7015 126.87 35.5321 127.096 35.3604C127.226 35.7298 127.49 36.0238 127.91 36.1524C128.289 36.2673 128.805 36.1847 129.18 35.9023C129.442 35.7047 129.626 35.3851 129.655 35.1022C129.662 35.0305 129.661 34.9606 129.65 34.8946C129.879 34.7526 130.108 34.6093 130.354 34.5118C130.402 34.4929 130.445 34.4822 130.483 34.4816C130.496 34.4822 130.51 34.4769 130.514 34.4857C130.53 34.5025 130.522 34.5296 130.513 34.561C130.496 34.6457 130.466 34.7301 130.436 34.8149C130.396 34.9272 130.455 35.0499 130.568 35.0887C130.679 35.1282 130.801 35.0695 130.841 34.9572C130.876 34.8553 130.912 34.7531 130.935 34.6504C130.983 34.4201 130.908 34.2394 130.768 34.1387C130.645 34.0503 130.45 34.0117 130.198 34.1115C129.929 34.2178 129.681 34.3754 129.433 34.5278L129.426 34.5233C129.362 34.473 129.268 34.4376 129.154 34.4268C128.964 34.4102 128.705 34.4608 128.501 34.5618C128.251 34.6856 128.095 34.8885 128.107 35.0959C128.111 35.178 128.146 35.251 128.207 35.305C128.265 35.3579 128.352 35.3933 128.464 35.3922C128.677 35.3902 129.042 35.2315 129.145 35.1822C129.166 35.1719 129.187 35.1614 129.208 35.1507C129.164 35.3023 129.058 35.4558 128.92 35.5597C128.658 35.757 128.299 35.8218 128.036 35.741C127.707 35.641 127.529 35.3842 127.464 35.0771C127.709 34.8844 127.944 34.687 128.165 34.476C128.362 34.2882 128.631 34.0233 128.794 33.7581C128.932 33.5344 128.992 33.3069 128.941 33.1091C128.905 32.9738 128.836 32.8885 128.756 32.8344C128.673 32.7802 128.573 32.7571 128.461 32.7677C128.321 32.7814 128.153 32.8533 127.993 32.9561C127.778 33.0939 127.575 33.2839 127.483 33.4028C127.159 33.8219 126.986 34.3841 127.011 34.89C126.815 35.0413 126.617 35.1893 126.42 35.3383C126.397 34.9111 126.32 34.4979 126.189 34.1051C126.152 33.9925 126.03 33.9313 125.919 33.9678C125.805 34.0054 125.744 34.1271 125.782 34.2387C125.927 34.6773 126.007 35.1642 125.997 35.6647ZM125.942 36.2607C125.723 36.4474 125.513 36.6429 125.32 36.8529C125.151 37.0379 124.83 37.4406 124.723 37.7783C124.686 37.8967 124.663 38.009 124.78 38.0509C124.937 38.1069 125.073 38.0363 125.19 37.9303C125.43 37.7129 125.596 37.3474 125.679 37.154C125.806 36.8574 125.894 36.5577 125.942 36.2607ZM128.516 33.1966C128.505 33.1972 128.483 33.198 128.468 33.2016C128.417 33.2154 128.366 33.236 128.319 33.2625C128.117 33.3692 127.91 33.5547 127.823 33.6656C127.631 33.9143 127.504 34.2235 127.456 34.5323C127.599 34.4133 127.737 34.2912 127.869 34.1651C128.043 33.9992 128.283 33.7681 128.427 33.5333C128.497 33.4222 128.55 33.3162 128.525 33.2182C128.523 33.211 128.519 33.2024 128.516 33.1966Z" fill="white"/>
<path fill-rule="evenodd" clip-rule="evenodd" d="M126.507 35.8115C126.49 36.3201 126.381 36.8425 126.289 37.3601C126.27 37.476 126.347 37.5879 126.463 37.6088C126.581 37.6287 126.692 37.5512 126.712 37.4343C126.807 36.8973 126.918 36.3547 126.935 35.8268C126.941 35.7077 126.848 35.6081 126.728 35.6047C126.611 35.6001 126.511 35.6934 126.507 35.8115ZM127.207 36.2608C127.194 36.4934 127.105 36.7448 127.048 36.981C127.019 37.0966 127.09 37.2132 127.206 37.2405C127.321 37.2689 127.438 37.1983 127.464 37.0838C127.528 36.8225 127.62 36.5443 127.636 36.2871C127.644 36.1683 127.554 36.066 127.436 36.059C127.317 36.052 127.215 36.142 127.207 36.2608Z" fill="white"/>
<path fill-rule="evenodd" clip-rule="evenodd" d="M126.529 39.5587C127.42 38.507 128.6 37.6895 129.686 36.8536C129.78 36.7816 129.796 36.6469 129.725 36.5523C129.69 36.5072 129.639 36.4778 129.582 36.4706C129.525 36.4633 129.468 36.4789 129.423 36.5139C128.314 37.3672 127.112 38.2063 126.2 39.2809C126.123 39.3716 126.135 39.5067 126.224 39.5842C126.315 39.6606 126.451 39.6493 126.529 39.5587Z" fill="white"/>
<path d="M111.291 28.0712C110.591 27.71 109.416 28.594 108.667 30.0457C107.919 31.4975 107.879 32.9672 108.58 33.3284C109.28 33.6897 110.455 32.8057 111.204 31.3539C111.952 29.9022 111.992 28.4325 111.291 28.0712Z" fill="#FAD8BA"/>
<path d="M142.656 85.3395C149.986 88.2375 157.924 85.537 160.387 79.3077C162.85 73.0784 158.905 65.6792 151.575 62.7812C144.246 59.8832 136.307 62.5838 133.844 68.8131C131.381 75.0424 135.326 82.4416 142.656 85.3395Z" fill="#FAD8BA"/>
<mask id="mask14_22_382" style="mask-type:luminance" maskUnits="userSpaceOnUse" x="133" y="61" width="29" height="26">
<path d="M142.656 85.3395C149.986 88.2375 157.924 85.537 160.387 79.3077C162.85 73.0784 158.905 65.6792 151.575 62.7812C144.246 59.8832 136.307 62.5838 133.844 68.8131C131.381 75.0424 135.326 82.4416 142.656 85.3395Z" fill="white"/>
</mask>
<g mask="url(#mask14_22_382)">
<path fill-rule="evenodd" clip-rule="evenodd" d="M127.042 69.3223C126.603 71.0476 136.525 63.7639 136.702 65.5209C136.911 67.5537 137.256 69.733 138.012 71.641C139.388 75.0968 143.25 77.9527 147.003 78.0232C148.918 78.0592 150.763 77.4868 152.524 76.7823C153.32 76.4634 154.558 75.6236 155.434 76.0021C157.236 76.777 156.105 79.9814 155.518 81.1138C155.336 81.4661 155.128 81.8046 154.897 82.1266C149.407 89.7579 138.183 89.5347 131.71 83.2837C127.998 79.699 126.294 74.3975 127.042 69.3223Z" fill="#E2C0A3"/>
</g>
<path fill-rule="evenodd" clip-rule="evenodd" d="M164.762 76.1604C167.333 79.6818 166.367 84.863 160.961 88.8103C155.554 92.7577 149.504 92.547 147.101 88.9087C143.512 83.477 149.327 86.0184 152.238 79.9911C156.455 71.2635 162.191 72.639 164.762 76.1604Z" fill="#F29F05"/>
<mask id="mask15_22_382" style="mask-type:luminance" maskUnits="userSpaceOnUse" x="145" y="73" width="22" height="19">
<path d="M164.762 76.1604C167.333 79.6818 166.367 84.863 160.961 88.8103C155.554 92.7577 149.504 92.547 147.101 88.9087C143.512 83.477 149.327 86.0184 152.238 79.9911C156.455 71.2635 162.191 72.639 164.762 76.1604Z" fill="white"/>
</mask>
<g mask="url(#mask15_22_382)">
<path fill-rule="evenodd" clip-rule="evenodd" d="M166.448 78.3469C166.376 80.7438 165.653 83.5751 164.233 85.3873C161.461 88.9232 155.96 89.4348 151.947 87.2416C150.696 86.5575 149.642 85.561 148.901 84.3041C148.515 83.6493 148.253 82.2765 147.382 82.1179C146.718 81.9972 146.222 82.7342 145.93 83.2134C145.048 84.6752 145.006 86.5826 145.675 88.2578C146.726 90.8901 149.19 92.8888 151.616 94.0578C157.268 96.7813 164.894 96.3717 168.476 91.0516C170.349 88.2657 167.474 81.6557 166.448 78.3469Z" fill="#B16800"/>
</g>
<path fill-rule="evenodd" clip-rule="evenodd" d="M156.268 47.3126C156.788 45.8943 155.828 42.8235 154.423 42.8596C150.104 42.9708 141.627 45.1454 137.308 45.2566C135.904 45.2927 134.345 46.4721 133.824 47.8904C131.762 53.5133 125.755 65.6259 123.693 71.2489C123.172 72.6672 125.001 75.0203 126.405 74.9842L143.765 74.5373C145.169 74.5011 146.728 73.3218 147.249 71.9035L156.268 47.3126Z" fill="#023341"/>
<path fill-rule="evenodd" clip-rule="evenodd" d="M155.229 45.1215C155.749 43.7032 155.033 42.5825 153.629 42.6186L136.269 43.0655C134.865 43.1017 133.306 44.281 132.785 45.6993L123.766 70.2902C123.246 71.7085 123.962 72.8293 125.366 72.7931L142.726 72.3462C144.13 72.3101 145.69 71.1308 146.21 69.7125L155.229 45.1215Z" fill="#6993A4"/>
<path fill-rule="evenodd" clip-rule="evenodd" d="M152.64 47.2377C153.102 45.9776 152.467 44.9821 151.219 45.0142L136.95 45.3816C135.704 45.4137 134.318 46.4612 133.856 47.7213L133.185 49.5501C132.723 50.8102 133.36 51.8057 134.606 51.7736L148.875 51.4062C150.123 51.3741 151.507 50.3266 151.969 49.0665L152.64 47.2377Z" fill="white"/>
<path d="M145.202 49.0507C144.955 49.6536 144.643 50.1184 144.266 50.4452C143.889 50.7721 143.463 50.9427 142.988 50.9571C142.52 50.9713 142.225 50.8254 142.106 50.5195C141.985 50.2137 142.042 49.7683 142.276 49.1836L142.604 48.3811C142.853 47.7722 143.167 47.3063 143.545 46.9834C143.924 46.6604 144.347 46.4919 144.816 46.4777C145.285 46.4635 145.579 46.6088 145.699 46.9137C145.82 47.2186 145.763 47.6634 145.53 48.2482L145.202 49.0507ZM144.708 48.1961C144.856 47.8348 144.915 47.5733 144.885 47.4116C144.855 47.2498 144.736 47.1721 144.529 47.1783C144.328 47.1844 144.148 47.2673 143.988 47.4269C143.829 47.5865 143.678 47.8331 143.535 48.1666L143.101 49.2266C142.956 49.582 142.896 49.8445 142.921 50.0143C142.945 50.1841 143.063 50.2658 143.274 50.2594C143.483 50.2531 143.667 50.1657 143.828 49.9972C143.988 49.8287 144.14 49.5737 144.284 49.2322L144.708 48.1961ZM145.294 50.4082C145.35 50.2705 145.442 50.1573 145.568 50.0687C145.695 49.9801 145.827 49.9337 145.965 49.9295C146.105 49.9253 146.203 49.9647 146.26 50.0478C146.316 50.1308 146.316 50.2413 146.26 50.379C146.204 50.5148 146.114 50.6264 145.989 50.714C145.863 50.8016 145.729 50.8475 145.588 50.8518C145.448 50.856 145.35 50.8171 145.294 50.735C145.238 50.6529 145.238 50.544 145.294 50.4082ZM147.802 48.6348L148.957 46.4114L151.368 46.3384L151.073 47.0601L149.362 47.1119L148.872 48.0524C149.12 47.9364 149.358 47.875 149.587 47.8681C149.996 47.8557 150.265 47.9747 150.392 48.2252C150.519 48.4757 150.488 48.8325 150.298 49.2956C150.183 49.5771 150.021 49.8309 149.813 50.057C149.604 50.2831 149.366 50.4609 149.097 50.5903C148.828 50.7197 148.545 50.7889 148.248 50.7979C147.987 50.8058 147.768 50.7596 147.589 50.6596C147.41 50.5595 147.296 50.4147 147.246 50.2249C147.196 50.0352 147.218 49.8167 147.312 49.5693L148.157 49.5438C148.1 49.7249 148.105 49.8642 148.171 49.9618C148.237 50.0594 148.357 50.1055 148.53 50.1003C148.723 50.0944 148.901 50.0196 149.063 49.8757C149.225 49.7318 149.359 49.5311 149.464 49.2735C149.565 49.026 149.583 48.8382 149.517 48.71C149.45 48.5819 149.307 48.5212 149.086 48.5279C148.883 48.534 148.697 48.5929 148.527 48.7045L148.412 48.7849L147.802 48.6348Z" fill="#023341"/>
<path fill-rule="evenodd" clip-rule="evenodd" d="M134.386 55.9256C134.666 55.1626 134.28 54.5599 133.526 54.5793L132.597 54.6033C131.843 54.6227 131.004 55.2569 130.724 56.0198L130.072 57.7959C129.793 58.5586 130.178 59.1613 130.932 59.1419L131.862 59.118C132.615 59.0985 133.455 58.4643 133.734 57.7016L134.386 55.9256Z" fill="white"/>
<path fill-rule="evenodd" clip-rule="evenodd" d="M132.141 62.0409C132.421 61.278 132.036 60.6753 131.282 60.6947L130.352 60.7186C129.598 60.738 128.759 61.3723 128.479 62.1352L127.828 63.9113C127.548 64.6739 127.934 65.2766 128.688 65.2572L129.617 65.2333C130.371 65.2139 131.21 64.5797 131.49 63.817L132.141 62.0409Z" fill="white"/>
<path fill-rule="evenodd" clip-rule="evenodd" d="M129.901 68.1574C130.181 67.3944 129.795 66.7917 129.041 66.8111L128.112 66.8351C127.358 66.8545 126.519 67.4887 126.239 68.2516L125.587 70.0277C125.308 70.7904 125.693 71.3931 126.447 71.3737L127.376 71.3498C128.13 71.3304 128.97 70.6961 129.249 69.9334L129.901 68.1574Z" fill="white"/>
<path fill-rule="evenodd" clip-rule="evenodd" d="M139.969 55.7814C140.249 55.0185 139.863 54.4158 139.109 54.4352L138.18 54.4591C137.426 54.4785 136.587 55.1127 136.307 55.8757L135.656 57.6517C135.376 58.4144 135.761 59.0171 136.515 58.9977L137.445 58.9738C138.199 58.9544 139.038 58.3201 139.318 57.5575L139.969 55.7814Z" fill="white"/>
<path fill-rule="evenodd" clip-rule="evenodd" d="M137.724 61.8971C138.004 61.1342 137.619 60.5315 136.865 60.5509L135.935 60.5748C135.182 60.5942 134.342 61.2285 134.062 61.9914L133.411 63.7675C133.131 64.5301 133.517 65.1328 134.271 65.1134L135.2 65.0895C135.954 65.0701 136.793 64.4359 137.073 63.6732L137.724 61.8971Z" fill="white"/>
<path fill-rule="evenodd" clip-rule="evenodd" d="M135.484 68.0131C135.764 67.2501 135.378 66.6474 134.624 66.6669L133.695 66.6908C132.941 66.7102 132.102 67.3444 131.822 68.1074L131.17 69.8834C130.891 70.6461 131.276 71.2488 132.03 71.2294L132.96 71.2055C133.713 71.1861 134.553 70.5518 134.832 69.7892L135.484 68.0131Z" fill="white"/>
<path fill-rule="evenodd" clip-rule="evenodd" d="M145.552 55.6375C145.832 54.8745 145.446 54.2718 144.692 54.2912L143.763 54.3152C143.009 54.3346 142.17 54.9688 141.89 55.7317L141.238 57.5078C140.959 58.2705 141.344 58.8732 142.098 58.8538L143.028 58.8299C143.781 58.8105 144.621 58.1762 144.9 57.4135L145.552 55.6375Z" fill="white"/>
<path fill-rule="evenodd" clip-rule="evenodd" d="M150.147 55.5198C150.427 54.7569 150.041 54.1542 149.287 54.1736L148.358 54.1975C147.604 54.2169 146.765 54.8511 146.485 55.6141L145.834 57.3901C145.554 58.1528 145.94 58.7555 146.694 58.7361L147.623 58.7122C148.377 58.6928 149.216 58.0585 149.496 57.2959L150.147 55.5198Z" fill="white"/>
<path fill-rule="evenodd" clip-rule="evenodd" d="M143.311 61.7536C143.591 60.9906 143.206 60.3879 142.452 60.4073L141.522 60.4313C140.768 60.4507 139.929 61.0849 139.649 61.8478L138.998 63.6239C138.718 64.3866 139.104 64.9893 139.858 64.9699L140.787 64.946C141.541 64.9265 142.38 64.2923 142.66 63.5296L143.311 61.7536Z" fill="white"/>
<path fill-rule="evenodd" clip-rule="evenodd" d="M141.067 67.8693C141.347 67.1063 140.961 66.5036 140.207 66.5231L139.278 66.547C138.524 66.5664 137.685 67.2006 137.405 67.9636L136.754 69.7396C136.474 70.5023 136.859 71.105 137.613 71.0856L138.543 71.0617C139.297 71.0423 140.136 70.408 140.416 69.6454L141.067 67.8693Z" fill="white"/>
<path fill-rule="evenodd" clip-rule="evenodd" d="M147.548 61.6429C147.828 60.8804 147.443 60.2775 146.687 60.2969L146.469 60.3025C145.713 60.322 144.874 60.9565 144.594 61.719L141.7 69.6111C141.42 70.3742 141.805 70.9766 142.561 70.9571L142.779 70.9515C143.536 70.932 144.374 70.2982 144.654 69.5351L147.548 61.6429Z" fill="white"/>
<path d="M147.016 69.1695C151.157 72.4551 156.079 73.146 158.01 70.7126C159.941 68.2792 158.149 63.6429 154.008 60.3573C149.866 57.0716 144.944 56.3808 143.013 58.8142C141.083 61.2476 142.875 65.8838 147.016 69.1695Z" fill="#FAD8BA"/>
<mask id="mask16_22_382" style="mask-type:luminance" maskUnits="userSpaceOnUse" x="142" y="57" width="17" height="16">
<path d="M147.016 69.1695C151.157 72.4551 156.079 73.146 158.01 70.7126C159.941 68.2792 158.149 63.6429 154.008 60.3573C149.866 57.0716 144.944 56.3808 143.013 58.8142C141.083 61.2476 142.875 65.8838 147.016 69.1695Z" fill="white"/>
</mask>
<g mask="url(#mask16_22_382)">
<path fill-rule="evenodd" clip-rule="evenodd" d="M141.274 55.2409C140.613 55.667 151.072 50.6417 146.769 58.0215C144.868 61.2809 146.551 65.5402 148.545 68.2894C149.553 69.6782 150.712 70.7832 152.048 71.5201C152.549 71.7969 153.067 72.0162 153.577 72.264C153.828 72.3871 154.174 72.5508 153.802 72.8411C151.753 74.4466 148.796 73.7832 146.849 72.3789C142.455 69.2125 139.992 61.7053 142.081 55.3485" fill="#E2C0A3"/>
</g>
<path d="M59.2989 119.425C67.6738 119.425 74.4629 112.636 74.4629 104.261C74.4629 95.8864 67.6738 89.0973 59.2989 89.0973C50.9241 89.0973 44.1349 95.8864 44.1349 104.261C44.1349 112.636 50.9241 119.425 59.2989 119.425Z" fill="#4B7686"/>
<path d="M56.8596 119.425C65.2344 119.425 72.0236 112.636 72.0236 104.261C72.0236 95.8864 65.2344 89.0973 56.8596 89.0973C48.4847 89.0973 41.6956 95.8864 41.6956 104.261C41.6956 112.636 48.4847 119.425 56.8596 119.425Z" fill="#6993A4"/>
<path d="M56.8593 116.135C63.4167 116.135 68.7326 110.819 68.7326 104.261C68.7326 97.704 63.4167 92.3882 56.8593 92.3882C50.3018 92.3882 44.986 97.704 44.986 104.261C44.986 110.819 50.3018 116.135 56.8593 116.135Z" fill="white"/>
<path d="M59.8891 106.495C59.6474 106.027 59.3255 105.721 58.9223 105.579C58.5205 105.436 57.9478 105.409 57.2041 105.496C56.4619 105.584 55.8052 105.628 55.2354 105.63C54.6641 105.632 54.1405 105.567 53.6631 105.434C53.1892 105.302 52.7473 105.075 52.3646 104.766C51.9749 104.454 51.6363 104.018 51.3473 103.459C50.8489 102.495 50.7488 101.545 51.0467 100.61C51.3447 99.6754 51.9766 98.8935 52.9455 98.2625L51.9991 96.4311L53.3677 95.7238L54.3274 97.5809C55.412 97.2011 56.42 97.2134 57.3513 97.6177C58.2827 98.0221 59.0367 98.7801 59.6117 99.8928L57.138 101.171C56.7841 100.486 56.3773 100.048 55.9208 99.8536C55.4627 99.6602 54.9965 99.686 54.5238 99.9303C54.0559 100.172 53.7619 100.492 53.6419 100.89C53.522 101.289 53.5836 101.721 53.8254 102.189C54.0495 102.623 54.354 102.906 54.7419 103.038C55.1283 103.171 55.7332 103.198 56.5566 103.12C57.3801 103.041 58.0741 103.01 58.6385 103.025C59.203 103.041 59.715 103.123 60.1762 103.272C60.6285 103.417 61.0475 103.65 61.4089 103.958C61.7707 104.266 62.0857 104.68 62.354 105.199C62.8553 106.169 62.9588 107.113 62.6677 108.03C62.375 108.948 61.7257 109.735 60.7213 110.391L61.6015 112.095L60.2409 112.798L59.3651 111.103C58.1296 111.583 57.0096 111.635 56.0035 111.263C54.9973 110.89 54.192 110.118 53.5876 108.949L56.0613 107.67C56.4121 108.349 56.8425 108.787 57.3523 108.982C57.8622 109.178 58.4189 109.12 59.0241 108.807C59.5256 108.548 59.8531 108.21 60.0082 107.794C60.1618 107.378 60.1221 106.945 59.8891 106.495Z" fill="#6993A4"/>
<path fill-rule="evenodd" clip-rule="evenodd" d="M47.2317 18.8282C47.2317 15.1929 50.9209 12.2413 55.4672 12.2413C60.011 12.2413 63.7001 15.1929 63.7001 18.8282C63.7001 20.7635 62.635 22.6006 60.7904 23.8522L62.3092 26.792L56.8581 25.3204C56.3995 25.3835 55.9333 25.4153 55.4672 25.4153C50.9209 25.4153 47.2317 22.4638 47.2317 18.8282Z" fill="#6993A4"/>
<path d="M54.7048 20.0371C54.7048 19.5578 54.7614 19.1758 54.8782 18.8916C54.9951 18.6077 55.2074 18.3277 55.5189 18.0519C55.8269 17.7765 56.0358 17.5521 56.1384 17.3793C56.2411 17.2062 56.2907 17.0239 56.2907 16.8324C56.2907 16.2536 56.0252 15.9644 55.4906 15.9644C55.2358 15.9644 55.034 16.0423 54.8818 16.198C54.7296 16.3538 54.6481 16.5687 54.6411 16.8427H53.1543C53.1614 16.1885 53.3702 15.6766 53.7879 15.307C54.2021 14.9371 54.772 14.7523 55.4906 14.7523C56.2163 14.7523 56.7792 14.9279 57.1792 15.2787C57.5792 15.6295 57.781 16.1251 57.781 16.7655C57.781 17.0565 57.7172 17.3312 57.5863 17.5899C57.4553 17.8483 57.2287 18.1351 56.9031 18.4501L56.4853 18.8455C56.2269 19.0955 56.0782 19.3882 56.0393 19.7238L56.0181 20.0371H54.7048ZM54.5561 21.6138C54.5561 21.3844 54.634 21.195 54.7897 21.046C54.9455 20.8973 55.1437 20.8226 55.388 20.8226C55.6287 20.8226 55.8305 20.8973 55.9862 21.046C56.142 21.195 56.2198 21.3844 56.2198 21.6138C56.2198 21.8396 56.142 22.0262 55.9898 22.1734C55.8376 22.3207 55.6358 22.3943 55.388 22.3943C55.1366 22.3943 54.9349 22.3207 54.7827 22.1734C54.6304 22.0262 54.5561 21.8396 54.5561 21.6138Z" fill="white"/>
</svg>
