<svg width="200" height="120" viewBox="0 0 200 120" fill="none" xmlns="http://www.w3.org/2000/svg">
<path fill-rule="evenodd" clip-rule="evenodd" d="M47.3914 26.2743C35.4696 26.2743 25.8075 35.9364 25.8075 47.8556C25.8075 52.9664 27.6216 57.9129 30.9263 61.8117L43.2751 51.3459C42.4481 50.371 41.9941 49.134 41.9941 47.8556C41.9941 44.8771 44.4103 42.4609 47.3914 42.4609V26.2743ZM33.8279 64.6469C37.6684 67.7477 42.4554 69.4391 47.3914 69.4395C58.9366 69.4395 68.437 60.3529 68.9515 48.8183L58.1701 48.3383C57.9129 54.1042 53.1627 58.6475 47.3914 58.6475C44.9222 58.6475 42.5299 57.8014 40.6096 56.2525L33.8279 64.6469ZM68.6252 43.9965C67.018 35.1513 60.0957 28.229 51.2504 26.6217L49.8792 34.1647C55.5815 35.2017 60.0453 39.6655 61.0823 45.3678L68.6252 43.9965Z" fill="#EEEEEE"/>
<path fill-rule="evenodd" clip-rule="evenodd" d="M37.1349 107.928C33.0022 105.095 28.4628 103.318 25.6206 99.0473C20.8294 91.846 21.8825 81.2693 31.23 78.5021C36.6192 76.9069 41.897 80.4322 47.2063 81.0473C56.5296 82.1271 68.2425 77.8964 74.7283 71.144C86.7487 58.6324 71.4963 41.7268 82.2117 28.5313C83.0034 27.5556 83.9645 26.6838 85.0467 26.0393C93.6292 20.9271 100.798 32.1647 109.199 31.4796C115.474 30.9675 118.072 23.1273 123.708 20.9891C134.193 17.0102 147.715 23.1927 148.998 34.9549C149.557 40.0868 146.644 44.7796 147.419 49.8863C147.417 49.8855 147.414 49.8848 147.414 49.8841C152.179 59.3568 166 54.5472 170.731 64.148C178.084 79.0749 159.335 82.8885 153.61 92.3314C150.838 96.9047 153.721 102.638 153 107.698L37.1349 107.928Z" fill="#EEEEEE"/>
<path d="M151.998 15.8492C151.998 13.8216 152.546 12.1756 153.636 10.9121C154.729 9.64856 156.163 9.0166 157.932 9.0166C159.728 9.0166 161.173 9.64095 162.266 10.8892C163.359 12.1379 163.904 13.8292 163.904 15.9627V17.5973C163.904 19.6402 163.359 21.2823 162.266 22.5234C161.173 23.764 159.742 24.3846 157.97 24.3846C156.188 24.3846 154.747 23.7602 153.646 22.512C152.546 21.2633 151.998 19.5796 151.998 17.4613V15.8492ZM155.615 17.5973C155.615 18.5054 155.833 19.2356 156.265 19.788C156.698 20.3403 157.267 20.6165 157.97 20.6165C158.673 20.6165 159.232 20.3365 159.647 19.7766C160.062 19.2166 160.269 18.4673 160.269 17.5291V15.8492C160.269 14.9415 160.062 14.2074 159.647 13.6475C159.232 13.0875 158.659 12.8076 157.932 12.8076C157.243 12.8076 156.684 13.0837 156.255 13.6361C155.829 14.1884 155.615 14.9563 155.615 15.9403V17.5973ZM165.11 34.441C165.11 32.3977 165.662 30.7521 166.769 29.5034C167.873 28.2552 169.304 27.6308 171.065 27.6308C172.847 27.6308 174.289 28.2475 175.389 29.481C176.486 30.7144 177.034 32.4129 177.034 34.5769V36.2115C177.034 38.2395 176.496 39.8775 175.417 41.1262C174.334 42.3744 172.897 42.9988 171.1 42.9988C169.293 42.9988 167.842 42.3706 166.748 41.1147C165.658 39.8589 165.11 38.1938 165.11 36.1208V34.441ZM168.727 36.2115C168.727 37.0438 168.952 37.755 169.406 38.3454C169.859 38.9355 170.422 39.2307 171.1 39.2307C172.633 39.2307 173.399 38.209 173.399 36.1662V34.441C173.399 33.5328 173.185 32.8026 172.76 32.2503C172.334 31.6979 171.768 31.4218 171.065 31.4218C170.359 31.4218 169.796 31.6979 169.367 32.2503C168.942 32.8026 168.727 33.5557 168.727 34.5092V36.2115ZM159.043 40.0706L156.388 38.3454L169.782 12.5123L172.44 14.2375L159.043 40.0706Z" fill="#626262"/>
<path fill-rule="evenodd" clip-rule="evenodd" d="M148.101 107.499C148.246 105.632 148.869 103.773 149.459 102.01C151.035 97.3149 153.305 93.0993 157.327 90.0719C159.281 88.6017 161.932 87.2249 164.466 87.5722C165.666 87.7363 167.005 88.4292 166.945 89.8164C166.842 92.2965 163.867 94.2342 162.049 95.4398C157.608 98.3872 149.361 101.58 148.101 107.499Z" fill="#6993A4"/>
<mask id="mask0_22_46" style="mask-type:luminance" maskUnits="userSpaceOnUse" x="148" y="87" width="19" height="21">
<path d="M148.101 107.499C148.246 105.632 148.869 103.773 149.459 102.01C151.035 97.3149 153.305 93.0993 157.327 90.0719C159.281 88.6017 161.932 87.2249 164.466 87.5722C165.666 87.7363 167.005 88.4292 166.945 89.8164C166.842 92.2965 163.867 94.2342 162.049 95.4398C157.608 98.3872 149.361 101.58 148.101 107.499Z" fill="white"/>
</mask>
<g mask="url(#mask0_22_46)">
<path fill-rule="evenodd" clip-rule="evenodd" d="M165.855 86.2964C166.195 87.1439 166.051 88.1477 165.875 89.0142C165.718 89.7957 165.499 90.5902 165.096 91.2834C163.638 93.7881 160.571 94.841 157.857 95.253C156.631 95.4394 154.666 95.5636 153.704 94.5565C153.044 93.8633 153.521 93.1963 153.561 92.4181C153.57 92.2121 153.407 92.163 153.234 92.2153C152.295 92.49 151.491 93.8273 150.987 94.5696C149.477 96.8094 148.512 99.52 148.113 102.185C147.973 103.123 147.763 104.435 148.368 105.265C149.127 106.308 150.853 105.51 151.733 105.098C151.988 104.977 152.243 104.85 152.495 104.719C152.786 104.569 153.077 104.412 153.361 104.255C153.809 104.009 154.247 103.748 154.682 103.486C157.34 101.897 170.044 95.2955 171.718 92.1728C173.464 88.9129 168.873 87.4022 165.855 86.2964Z" fill="#477282"/>
</g>
<path fill-rule="evenodd" clip-rule="evenodd" d="M153.665 83.675C154.696 82.6891 155.995 81.9514 157.228 81.2512C160.509 79.389 163.942 78.1516 167.764 78.4799C169.62 78.6396 171.824 79.2067 173.085 80.6925C173.683 81.3961 174.09 82.4703 173.351 83.2269C172.03 84.5814 169.357 84.1679 167.712 83.9272C163.693 83.3404 157.391 80.9574 153.665 83.675Z" fill="#6993A4"/>
<mask id="mask1_22_46" style="mask-type:luminance" maskUnits="userSpaceOnUse" x="153" y="78" width="21" height="7">
<path d="M153.665 83.675C154.696 82.6891 155.995 81.9514 157.228 81.2512C160.509 79.389 163.942 78.1516 167.764 78.4799C169.62 78.6396 171.824 79.2067 173.085 80.6925C173.683 81.3961 174.09 82.4703 173.351 83.2269C172.03 84.5814 169.357 84.1679 167.712 83.9272C163.693 83.3404 157.391 80.9574 153.665 83.675Z" fill="white"/>
</mask>
<g mask="url(#mask1_22_46)">
<path fill-rule="evenodd" clip-rule="evenodd" d="M174.522 80.6751C174.284 81.329 173.692 81.8254 173.151 82.2272C172.665 82.5908 172.136 82.9301 171.555 83.1189C169.454 83.7982 167.178 82.8356 165.429 81.689C164.638 81.171 163.46 80.242 163.427 79.1816C163.405 78.4523 164.015 78.3167 164.433 77.8951C164.543 77.7832 164.476 77.6722 164.351 77.6138C163.678 77.2923 162.542 77.6419 161.879 77.8069C159.882 78.3094 157.956 79.3568 156.374 80.6659C155.817 81.1268 155.032 81.7643 154.952 82.5432C154.852 83.5209 156.238 83.9464 156.946 84.16C157.153 84.2211 157.362 84.2784 157.571 84.3323C157.813 84.395 158.058 84.4539 158.299 84.5096C158.678 84.5983 159.06 84.6727 159.44 84.7455C161.756 85.196 172.322 87.9116 174.86 86.9914C177.509 86.0298 175.672 82.8377 174.522 80.6751Z" fill="#477282"/>
</g>
<path fill-rule="evenodd" clip-rule="evenodd" d="M149.009 89.6411C148.572 88.4804 148.424 87.1902 148.283 85.9662C147.91 82.707 148.089 79.5404 149.652 76.5946C150.412 75.1639 151.616 73.5936 153.234 73.0906C154 72.8521 154.998 72.8919 155.351 73.741C155.985 75.2581 154.745 77.2559 153.992 78.4897C152.155 81.5051 148.103 85.7357 149.009 89.6411Z" fill="#6993A4"/>
<mask id="mask2_22_46" style="mask-type:luminance" maskUnits="userSpaceOnUse" x="148" y="72" width="8" height="18">
<path d="M149.009 89.6411C148.572 88.4804 148.424 87.1902 148.283 85.9662C147.91 82.707 148.089 79.5404 149.652 76.5946C150.412 75.1639 151.616 73.5936 153.234 73.0906C154 72.8521 154.998 72.8919 155.351 73.741C155.985 75.2581 154.745 77.2559 153.992 78.4897C152.155 81.5051 148.103 85.7357 149.009 89.6411Z" fill="white"/>
</mask>
<g mask="url(#mask2_22_46)">
<path fill-rule="evenodd" clip-rule="evenodd" d="M153.709 71.9351C154.151 72.3481 154.346 72.9908 154.484 73.5603C154.609 74.0732 154.7 74.6115 154.654 75.1403C154.482 77.0526 152.937 78.5454 151.425 79.5545C150.741 80.0106 149.597 80.6369 148.737 80.3026C148.147 80.0721 148.246 79.5378 148.051 79.0599C147.999 78.9335 147.887 78.95 147.798 79.03C147.312 79.4583 147.205 80.4865 147.111 81.0732C146.833 82.8413 147.016 84.7385 147.524 86.4494C147.703 87.052 147.946 87.8974 148.542 88.2259C149.29 88.6388 150.102 87.6754 150.514 87.1812C150.633 87.037 150.75 86.8889 150.865 86.7398C150.997 86.5678 151.128 86.3919 151.254 86.2179C151.454 85.945 151.644 85.665 151.831 85.386C152.98 83.6861 158.749 76.1586 158.876 73.815C159.009 71.3688 155.83 71.7513 153.709 71.9351Z" fill="#477282"/>
</g>
<path fill-rule="evenodd" clip-rule="evenodd" d="M146.736 107.499C146.592 105.632 145.968 103.773 145.378 102.01C143.802 97.3149 141.532 93.0993 137.51 90.0719C135.556 88.6017 132.905 87.2249 130.371 87.5722C129.171 87.7363 127.832 88.4292 127.892 89.8164C127.996 92.2965 130.97 94.2342 132.788 95.4398C137.23 98.3872 145.476 101.58 146.736 107.499Z" fill="#6993A4"/>
<mask id="mask3_22_46" style="mask-type:luminance" maskUnits="userSpaceOnUse" x="127" y="87" width="20" height="21">
<path d="M146.736 107.499C146.592 105.632 145.968 103.773 145.378 102.01C143.802 97.3149 141.532 93.0993 137.51 90.0719C135.556 88.6017 132.905 87.2249 130.371 87.5722C129.171 87.7363 127.832 88.4292 127.892 89.8164C127.996 92.2965 130.97 94.2342 132.788 95.4398C137.23 98.3872 145.476 101.58 146.736 107.499Z" fill="white"/>
</mask>
<g mask="url(#mask3_22_46)">
<path fill-rule="evenodd" clip-rule="evenodd" d="M128.982 86.2964C128.642 87.1439 128.786 88.1477 128.963 89.0142C129.12 89.7957 129.339 90.5902 129.741 91.2834C131.199 93.7881 134.266 94.841 136.98 95.253C138.206 95.4394 140.172 95.5636 141.133 94.5565C141.793 93.8633 141.316 93.1963 141.277 92.4181C141.267 92.2121 141.43 92.163 141.604 92.2153C142.542 92.49 143.346 93.8273 143.85 94.5696C145.361 96.8094 146.325 99.52 146.724 102.185C146.865 103.123 147.074 104.435 146.469 105.265C145.711 106.308 143.984 105.51 143.104 105.098C142.849 104.977 142.594 104.85 142.343 104.719C142.052 104.569 141.761 104.412 141.476 104.255C141.028 104.009 140.59 103.748 140.155 103.486C137.497 101.897 124.794 95.2955 123.12 92.1728C121.374 88.9129 125.964 87.4022 128.982 86.2964Z" fill="#477282"/>
</g>
<path fill-rule="evenodd" clip-rule="evenodd" d="M148.694 106.575C148.6 103.059 148.38 99.2759 148.784 95.6475C149.17 92.2122 150.116 88.914 152.38 86.1742C154.831 83.2029 158.326 81.3392 161.456 79.172C164.94 76.7578 167.991 73.9945 169.164 69.4384C169.521 68.065 169.655 66.6371 169.518 65.2251C169.37 63.7196 168.871 62.2679 168.204 60.9107C167.882 60.2566 167.088 59.9879 166.435 60.3104C165.781 60.6328 165.51 61.4256 165.835 62.0793C166.362 63.152 166.77 64.295 166.889 65.485C166.998 66.589 166.886 67.7046 166.608 68.7784C165.604 72.6597 162.922 74.9439 159.951 77.0005C156.625 79.304 152.947 81.3346 150.34 84.4917C145.275 90.6316 145.852 99.1916 146.051 106.645C146.073 107.376 146.679 107.952 147.409 107.931C148.138 107.913 148.712 107.306 148.694 106.575Z" fill="#6993A4"/>
<mask id="mask4_22_46" style="mask-type:luminance" maskUnits="userSpaceOnUse" x="145" y="60" width="25" height="48">
<path d="M148.694 106.575C148.6 103.059 148.38 99.2759 148.784 95.6475C149.17 92.2122 150.116 88.914 152.38 86.1742C154.831 83.2029 158.326 81.3392 161.456 79.172C164.94 76.7578 167.991 73.9945 169.164 69.4384C169.521 68.065 169.655 66.6371 169.518 65.2251C169.37 63.7196 168.871 62.2679 168.204 60.9107C167.882 60.2566 167.088 59.9879 166.435 60.3104C165.781 60.6328 165.51 61.4256 165.835 62.0793C166.362 63.152 166.77 64.295 166.889 65.485C166.998 66.589 166.886 67.7046 166.608 68.7784C165.604 72.6597 162.922 74.9439 159.951 77.0005C156.625 79.304 152.947 81.3346 150.34 84.4917C145.275 90.6316 145.852 99.1916 146.051 106.645C146.073 107.376 146.679 107.952 147.409 107.931C148.138 107.913 148.712 107.306 148.694 106.575Z" fill="white"/>
</mask>
<g mask="url(#mask4_22_46)">
<path fill-rule="evenodd" clip-rule="evenodd" d="M162.377 58.4415C164.382 60.0829 165.151 70.177 166.599 72.2875C166.943 72.7927 167.471 74.7694 168.162 74.8826C168.696 74.969 169.153 74.1931 169.38 73.8329C170.187 72.5588 170.633 71.012 171.019 69.5703C172.023 65.8519 172.577 61.3728 171.447 57.6262C171.259 56.9932 171.003 56.3555 170.648 55.7966C169.087 53.3592 166.242 54.5859 164.531 56.1128C163.741 56.8199 163.042 57.6148 162.377 58.4415Z" fill="#477282"/>
</g>
<path d="M164.47 68.556C171.318 68.556 176.869 63.0051 176.869 56.1577C176.869 49.3103 171.318 43.7594 164.47 43.7594C157.623 43.7594 152.072 49.3103 152.072 56.1577C152.072 63.0051 157.623 68.556 164.47 68.556Z" fill="#F29F05"/>
<mask id="mask5_22_46" style="mask-type:luminance" maskUnits="userSpaceOnUse" x="152" y="43" width="25" height="26">
<path d="M164.47 68.556C171.318 68.556 176.869 63.0051 176.869 56.1577C176.869 49.3103 171.318 43.7594 164.47 43.7594C157.623 43.7594 152.072 49.3103 152.072 56.1577C152.072 63.0051 157.623 68.556 164.47 68.556Z" fill="white"/>
</mask>
<g mask="url(#mask5_22_46)">
<path fill-rule="evenodd" clip-rule="evenodd" d="M174.578 46.4434C175.814 52.5448 175.418 59.9182 169.846 63.8059C168.781 64.544 167.619 65.1305 166.393 65.5488C163.313 66.6016 159.618 66.5853 156.662 65.1531C155.793 64.7346 154.965 64.2016 154.262 63.5378C153.821 63.1226 153.383 62.4293 152.833 62.1579C152.287 61.8866 152.137 62.5798 152.17 62.9722C152.287 64.4501 153.288 65.9149 154.187 67.0267C157.647 71.3068 163.359 72.5625 168.519 70.8949C177.416 68.0207 182.072 54.5655 174.578 46.4434Z" fill="#D98A00"/>
</g>
<path fill-rule="evenodd" clip-rule="evenodd" d="M173.033 37.8019L173.523 40.9535L176.676 41.4433L173.523 41.9327L173.033 45.0843L172.543 41.9327L169.393 41.4433L172.543 40.9535L173.033 37.8019Z" fill="#F29F05"/>
<path fill-rule="evenodd" clip-rule="evenodd" d="M177.952 35.6638L178.24 37.5141L180.091 37.8016L178.24 38.0889L177.952 39.9392L177.664 38.0889L175.815 37.8016L177.664 37.5141L177.952 35.6638Z" fill="#F29F05"/>
<path fill-rule="evenodd" clip-rule="evenodd" d="M177.952 43.7051L178.24 45.5553L180.091 45.8429L178.24 46.1302L177.952 47.9805L177.664 46.1302L175.815 45.8429L177.664 45.5553L177.952 43.7051Z" fill="#F29F05"/>
<path d="M167.43 57.8617C167.201 57.4655 166.91 57.2133 166.554 57.1063C166.199 56.9984 165.701 56.9976 165.059 57.1041C164.419 57.2097 163.85 57.2751 163.356 57.2996C162.86 57.3249 162.403 57.2892 161.983 57.1932C161.567 57.098 161.174 56.9184 160.829 56.6657C160.478 56.4109 160.167 56.0463 159.893 55.5726C159.422 54.7558 159.296 53.9358 159.517 53.1124C159.738 52.2889 160.255 51.5847 161.07 50.9978L160.175 49.4465L161.334 48.7772L162.242 50.3502C163.168 49.9767 164.043 49.9465 164.868 50.2598C165.693 50.5731 166.378 51.2005 166.922 52.1429L164.827 53.3526C164.492 52.7726 164.121 52.4084 163.717 52.2583C163.311 52.109 162.908 52.1503 162.507 52.3814C162.111 52.6103 161.869 52.8999 161.781 53.2504C161.693 53.6009 161.764 53.9738 161.993 54.3702C162.205 54.7374 162.481 54.9714 162.823 55.0702C163.163 55.17 163.689 55.1691 164.401 55.0676C165.113 54.9661 165.714 54.9107 166.204 54.9013C166.695 54.8918 167.142 54.9427 167.549 55.0529C167.947 55.1603 168.32 55.3457 168.646 55.5983C168.973 55.8514 169.263 56.1977 169.517 56.6375C169.991 57.4591 170.119 58.2745 169.904 59.0819C169.687 59.8902 169.155 60.5999 168.31 61.2103L169.143 62.653L167.99 63.3183L167.162 61.8829C166.109 62.349 165.139 62.4402 164.251 62.1574C163.362 61.8744 162.632 61.2376 162.06 60.2469L164.155 59.0372C164.487 59.6122 164.878 59.9743 165.329 60.1235C165.779 60.2727 166.26 60.1996 166.773 59.9036C167.198 59.6584 167.468 59.3524 167.586 58.9847C167.702 58.6179 167.65 58.2435 167.43 57.8617Z" fill="white"/>
<path fill-rule="evenodd" clip-rule="evenodd" d="M35.4871 107.573H157.813V108.301H35.4871V107.573Z" fill="#03222F"/>
<path fill-rule="evenodd" clip-rule="evenodd" d="M19.9089 107.665H31.7855V108.438H19.9089V107.665Z" fill="#03222F"/>
<path fill-rule="evenodd" clip-rule="evenodd" d="M97.9439 33.1944C95.7877 37.1798 90.4341 57.7379 90.4341 57.7379C90.4341 57.7379 68.5083 50.9576 61.8685 51.976C57.8158 52.5972 56.6663 59.7396 66.0488 64.9999C75.4363 70.262 91.0518 73.5681 97.2871 69.1154C103.893 64.3949 103.374 33.822 103.374 33.822C103.374 33.822 98.8122 31.5908 97.9439 33.1944Z" fill="#FAD8BA"/>
<mask id="mask6_22_46" style="mask-type:luminance" maskUnits="userSpaceOnUse" x="58" y="32" width="46" height="40">
<path d="M97.9439 33.1944C95.7877 37.1798 90.4341 57.7379 90.4341 57.7379C90.4341 57.7379 68.5083 50.9576 61.8685 51.976C57.8158 52.5972 56.6663 59.7396 66.0488 64.9999C75.4363 70.262 91.0518 73.5681 97.2871 69.1154C103.893 64.3949 103.374 33.822 103.374 33.822C103.374 33.822 98.8122 31.5908 97.9439 33.1944Z" fill="white"/>
</mask>
<g mask="url(#mask6_22_46)">
<path fill-rule="evenodd" clip-rule="evenodd" d="M104.229 60.4645C103.023 61.903 100.895 62.7906 99.2437 63.5418C93.8811 65.9817 87.434 66.6945 81.7277 65.0559C78.9944 64.2705 76.7016 62.876 74.2588 61.4777C73.4163 60.9952 72.2809 60.4298 71.4529 61.2486C70.3659 62.3214 70.4264 64.409 70.6443 65.7745C71.298 69.8979 74.4332 73.3176 78.3673 74.5874C86.2985 77.1491 98.4375 65.8982 104.229 60.4645Z" fill="#D7B699"/>
<path fill-rule="evenodd" clip-rule="evenodd" d="M70.5435 69.9048C70.5864 67.4996 72.5979 65.0836 74.5318 63.9108C75.8791 63.0935 77.6332 62.462 78.5997 61.1508C79.8624 59.4377 78.1795 57.7292 78.5718 55.9305C78.7177 55.2659 79.2458 54.8206 79.5521 54.2375C80.1067 53.1791 79.7132 52.1938 79.0612 51.2965C75.5712 46.5072 67.1573 46.8534 61.6061 49.5602C58.9408 50.8604 56.3146 52.8109 56.6247 56.1051C56.8106 58.0697 57.9967 59.825 59.2295 61.2979C61.5029 64.0147 67.6646 67.8776 70.5435 69.9048Z" fill="#F25C05"/>
<path fill-rule="evenodd" clip-rule="evenodd" d="M76.5734 62.7828C75.542 62.2543 72.8208 60.5385 71.8258 59.6233C71.327 59.1653 70.867 58.669 70.424 58.1574C70.3465 58.0686 70.1238 57.7122 69.9664 57.8103C69.7945 57.916 69.9059 58.3843 69.9253 58.5322C70.0221 59.3055 70.1529 60.0766 70.2836 60.8447C70.608 62.7564 71.097 66.0828 73.1162 64.9021C74.041 64.3603 75.5323 63.6892 76.5734 62.7828Z" fill="#D23F00"/>
</g>
<path fill-rule="evenodd" clip-rule="evenodd" d="M77.8309 99.8305C74.1601 103.262 80.0273 108.145 80.0273 108.145C85.8883 108.339 91.414 108.545 97.6919 109.19C98.9628 109.157 95.2033 100.718 91.4894 101.674C83.5069 103.732 79.5341 98.2387 77.8309 99.8305Z" fill="#F29F05"/>
<mask id="mask7_22_46" style="mask-type:luminance" maskUnits="userSpaceOnUse" x="76" y="99" width="22" height="11">
<path d="M77.8309 99.8305C74.1601 103.262 80.0273 108.145 80.0273 108.145C85.8883 108.339 91.414 108.545 97.6919 109.19C98.9628 109.157 95.2033 100.718 91.4894 101.674C83.5069 103.732 79.5341 98.2387 77.8309 99.8305Z" fill="white"/>
</mask>
<g mask="url(#mask7_22_46)">
<path fill-rule="evenodd" clip-rule="evenodd" d="M76.0435 99.3523C76.3171 100.848 77.2129 102.5 78.4307 103.424C80.1786 104.751 82.6989 105.301 84.8197 105.671C86.5846 105.979 88.8991 106.107 90.3541 104.848C91.7099 103.671 91.5646 101.742 90.7778 100.284C89.3857 97.6987 86.4321 96.0912 83.5729 95.8079C81.5683 95.607 77.8859 98.5437 76.0435 99.3523Z" fill="#B16800"/>
</g>
<path fill-rule="evenodd" clip-rule="evenodd" d="M56.7856 86.1049C64.5719 91.5265 76.6813 86.3427 76.6813 86.3427L77.4513 100.734C81.1684 103.434 87.1421 104.173 92.9802 101.408C92.9802 101.408 92.6621 81.3729 88.4546 74.8718C81.1686 63.6177 59.3407 67.5807 59.3407 67.5807C59.3407 67.5807 53.3193 83.6903 56.7856 86.1049Z" fill="#023341"/>
<mask id="mask8_22_46" style="mask-type:luminance" maskUnits="userSpaceOnUse" x="55" y="66" width="38" height="38">
<path d="M56.7856 86.1049C64.5719 91.5265 76.6813 86.3427 76.6813 86.3427L77.4513 100.734C81.1684 103.434 87.1421 104.173 92.9802 101.408C92.9802 101.408 92.6621 81.3729 88.4546 74.8718C81.1686 63.6177 59.3407 67.5807 59.3407 67.5807C59.3407 67.5807 53.3193 83.6903 56.7856 86.1049Z" fill="white"/>
</mask>
<g mask="url(#mask8_22_46)">
<path fill-rule="evenodd" clip-rule="evenodd" d="M83.3208 67.8424C82.0667 68.406 80.8973 69.2168 79.8393 70.0865C79.0041 70.7706 78.273 71.4892 77.721 72.4223C77.2876 73.1575 77.0019 73.9538 76.8203 74.7859C76.3918 76.743 76.7138 78.5571 78.118 80.0305C79.7982 81.7976 82.0255 82.3711 82.1441 85.203C82.253 87.8329 81.3936 90.4285 80.7157 92.9325C80.1831 94.9056 79.6819 97.1451 80.4373 99.1303C80.827 100.15 81.5775 101.002 82.6186 101.379C83.9187 101.854 85.6836 101.747 86.1654 103.379C86.7173 105.239 84.0446 105.953 82.7227 105.95C78.9072 105.941 75.7405 102.624 73.4139 99.9776C67.6084 93.378 61.7374 84.4466 64.0326 75.2926C65.4876 69.493 70.366 62.7622 77.0552 63.2348C78.2246 63.3171 82.241 67.4059 83.3208 67.8424Z" fill="#03222F"/>
</g>
<path fill-rule="evenodd" clip-rule="evenodd" d="M144.788 40.4303C144.788 39.2633 144.324 38.144 143.501 37.3188C142.675 36.4935 141.557 36.0299 140.388 36.0299H90.6551C89.4891 36.0299 88.3709 36.4935 87.5448 37.3188C86.7187 38.144 86.2553 39.2633 86.2553 40.4303V105.114C86.2553 106.281 86.7187 107.398 87.5448 108.224C88.3709 109.051 89.4891 109.514 90.6551 109.514H140.388C141.557 109.514 142.675 109.051 143.501 108.224C144.324 107.398 144.788 106.281 144.788 105.114V40.4303Z" fill="#023341"/>
<path fill-rule="evenodd" clip-rule="evenodd" d="M141.389 41.8991C141.389 40.732 140.926 39.6128 140.102 38.7875C139.276 37.9623 138.158 37.4987 136.989 37.4987H87.2565C86.0904 37.4987 84.9722 37.9623 84.1462 38.7875C83.3201 39.6128 82.8567 40.732 82.8567 41.8991V106.583C82.8567 107.749 83.3201 108.866 84.1462 109.693C84.9722 110.519 86.0904 110.983 87.2565 110.983H136.989C138.158 110.983 139.276 110.519 140.102 109.693C140.926 108.866 141.389 107.749 141.389 106.583V41.8991Z" fill="#6993A4"/>
<path fill-rule="evenodd" clip-rule="evenodd" d="M139.355 46.3013C139.355 43.871 137.387 41.9009 134.956 41.9009H89.2902C86.8599 41.9009 84.889 43.871 84.889 46.3013V51.298C84.889 53.7284 86.8599 55.6985 89.2902 55.6985H134.956C137.387 55.6985 139.355 53.7284 139.355 51.298V46.3013Z" fill="white"/>
<path fill-rule="evenodd" clip-rule="evenodd" d="M97.2617 64.7162C97.2617 63.4703 96.252 62.4604 95.0057 62.4604H90.8842C89.6379 62.4604 88.6283 63.4703 88.6283 64.7162V68.8371C88.6283 70.083 89.6379 71.0928 90.8842 71.0928H95.0057C96.252 71.0928 97.2617 70.083 97.2617 68.8371V64.7162Z" fill="#023341"/>
<path fill-rule="evenodd" clip-rule="evenodd" d="M97.2617 76.9281C97.2617 75.6822 96.252 74.6724 95.0057 74.6724H90.8842C89.6379 74.6724 88.6283 75.6822 88.6283 76.9281V81.049C88.6283 82.2949 89.6379 83.3047 90.8842 83.3047H95.0057C96.252 83.3047 97.2617 82.2949 97.2617 81.049V76.9281Z" fill="#023341"/>
<path fill-rule="evenodd" clip-rule="evenodd" d="M97.2617 89.1399C97.2617 87.894 96.252 86.8842 95.0057 86.8842H90.8842C89.6379 86.8842 88.6283 87.894 88.6283 89.1399V93.2608C88.6283 94.5067 89.6379 95.5165 90.8842 95.5165H95.0057C96.252 95.5165 97.2617 94.5067 97.2617 93.2608V89.1399Z" fill="#023341"/>
<path fill-rule="evenodd" clip-rule="evenodd" d="M97.2617 101.352C97.2617 100.106 96.252 99.0962 95.0057 99.0962H90.8842C89.6379 99.0962 88.6283 100.106 88.6283 101.352V105.473C88.6283 106.719 89.6379 107.729 90.8842 107.729H95.0057C96.252 107.729 97.2617 106.719 97.2617 105.473V101.352Z" fill="#023341"/>
<path fill-rule="evenodd" clip-rule="evenodd" d="M110.623 64.7162C110.623 63.4703 109.614 62.4604 108.368 62.4604H104.246C103 62.4604 101.99 63.4703 101.99 64.7162V68.8371C101.99 70.083 103 71.0928 104.246 71.0928H108.368C109.614 71.0928 110.623 70.083 110.623 68.8371V64.7162Z" fill="#023341"/>
<path fill-rule="evenodd" clip-rule="evenodd" d="M110.623 76.9281C110.623 75.6822 109.614 74.6724 108.368 74.6724H104.246C103 74.6724 101.99 75.6822 101.99 76.9281V81.049C101.99 82.2949 103 83.3047 104.246 83.3047H108.368C109.614 83.3047 110.623 82.2949 110.623 81.049V76.9281Z" fill="#023341"/>
<path fill-rule="evenodd" clip-rule="evenodd" d="M110.623 89.1399C110.623 87.894 109.614 86.8842 108.368 86.8842H104.246C103 86.8842 101.99 87.894 101.99 89.1399V93.2608C101.99 94.5067 103 95.5165 104.246 95.5165H108.368C109.614 95.5165 110.623 94.5067 110.623 93.2608V89.1399Z" fill="#023341"/>
<path fill-rule="evenodd" clip-rule="evenodd" d="M110.623 101.352C110.623 100.106 109.614 99.0962 108.368 99.0962H104.246C103 99.0962 101.99 100.106 101.99 101.352V105.473C101.99 106.719 103 107.729 104.246 107.729H108.368C109.614 107.729 110.623 106.719 110.623 105.473V101.352Z" fill="#023341"/>
<path fill-rule="evenodd" clip-rule="evenodd" d="M123.986 64.7162C123.986 63.4703 122.976 62.4604 121.73 62.4604H117.608C116.362 62.4604 115.352 63.4703 115.352 64.7162V68.8371C115.352 70.083 116.362 71.0928 117.608 71.0928H121.73C122.976 71.0928 123.986 70.083 123.986 68.8371V64.7162Z" fill="#023341"/>
<path fill-rule="evenodd" clip-rule="evenodd" d="M123.986 76.9281C123.986 75.6822 122.976 74.6724 121.73 74.6724H117.608C116.362 74.6724 115.352 75.6822 115.352 76.9281V81.049C115.352 82.2949 116.362 83.3047 117.608 83.3047H121.73C122.976 83.3047 123.986 82.2949 123.986 81.049V76.9281Z" fill="#023341"/>
<path fill-rule="evenodd" clip-rule="evenodd" d="M123.986 89.1399C123.986 87.894 122.976 86.8842 121.73 86.8842H117.608C116.362 86.8842 115.352 87.894 115.352 89.1399V93.2608C115.352 94.5067 116.362 95.5165 117.608 95.5165H121.73C122.976 95.5165 123.986 94.5067 123.986 93.2608V89.1399Z" fill="#023341"/>
<path fill-rule="evenodd" clip-rule="evenodd" d="M123.986 101.352C123.986 100.106 122.976 99.0962 121.73 99.0962H117.608C116.362 99.0962 115.352 100.106 115.352 101.352V105.473C115.352 106.719 116.362 107.729 117.608 107.729H121.73C122.976 107.729 123.986 106.719 123.986 105.473V101.352Z" fill="#023341"/>
<path fill-rule="evenodd" clip-rule="evenodd" d="M137.348 64.7162C137.348 63.4703 136.338 62.4604 135.092 62.4604H130.97C129.724 62.4604 128.714 63.4703 128.714 64.7162V68.8371C128.714 70.083 129.724 71.0928 130.97 71.0928H135.092C136.338 71.0928 137.348 70.083 137.348 68.8371V64.7162Z" fill="#023341"/>
<path fill-rule="evenodd" clip-rule="evenodd" d="M137.348 76.9281C137.348 75.6822 136.338 74.6724 135.092 74.6724H130.97C129.724 74.6724 128.714 75.6822 128.714 76.9281V81.049C128.714 82.2949 129.724 83.3047 130.97 83.3047H135.092C136.338 83.3047 137.348 82.2949 137.348 81.049V76.9281Z" fill="#023341"/>
<path fill-rule="evenodd" clip-rule="evenodd" d="M137.348 89.0541C137.348 87.8082 136.338 86.7985 135.092 86.7985H130.97C129.724 86.7985 128.714 87.8082 128.714 89.0541V105.471C128.714 106.717 129.724 107.727 130.97 107.727H135.092C136.338 107.727 137.348 106.717 137.348 105.471V89.0541Z" fill="#023341"/>
<path fill-rule="evenodd" clip-rule="evenodd" d="M96.3683 63.4087C96.3683 62.1628 95.3586 61.153 94.1123 61.153H89.9909C88.7446 61.153 87.7349 62.1628 87.7349 63.4087V67.5296C87.7349 68.7755 88.7446 69.7853 89.9909 69.7853H94.1123C95.3586 69.7853 96.3683 68.7755 96.3683 67.5296V63.4087Z" fill="white"/>
<path fill-rule="evenodd" clip-rule="evenodd" d="M96.3683 75.6205C96.3683 74.3746 95.3586 73.3647 94.1123 73.3647H89.9909C88.7446 73.3647 87.7349 74.3746 87.7349 75.6205V79.7414C87.7349 80.9873 88.7446 81.9971 89.9909 81.9971H94.1123C95.3586 81.9971 96.3683 80.9873 96.3683 79.7414V75.6205Z" fill="white"/>
<path fill-rule="evenodd" clip-rule="evenodd" d="M96.3683 87.8323C96.3683 86.5864 95.3586 85.5765 94.1123 85.5765H89.9909C88.7446 85.5765 87.7349 86.5864 87.7349 87.8323V91.9531C87.7349 93.199 88.7446 94.2089 89.9909 94.2089H94.1123C95.3586 94.2089 96.3683 93.199 96.3683 91.9531V87.8323Z" fill="white"/>
<path fill-rule="evenodd" clip-rule="evenodd" d="M96.3683 100.044C96.3683 98.7982 95.3586 97.7883 94.1123 97.7883H89.9909C88.7446 97.7883 87.7349 98.7982 87.7349 100.044V104.165C87.7349 105.411 88.7446 106.421 89.9909 106.421H94.1123C95.3586 106.421 96.3683 105.411 96.3683 104.165V100.044Z" fill="white"/>
<path fill-rule="evenodd" clip-rule="evenodd" d="M109.73 63.4087C109.73 62.1628 108.721 61.153 107.474 61.153H103.353C102.107 61.153 101.097 62.1628 101.097 63.4087V67.5296C101.097 68.7755 102.107 69.7853 103.353 69.7853H107.474C108.721 69.7853 109.73 68.7755 109.73 67.5296V63.4087Z" fill="white"/>
<path fill-rule="evenodd" clip-rule="evenodd" d="M109.73 75.6205C109.73 74.3746 108.721 73.3647 107.474 73.3647H103.353C102.107 73.3647 101.097 74.3746 101.097 75.6205V79.7414C101.097 80.9873 102.107 81.9971 103.353 81.9971H107.474C108.721 81.9971 109.73 80.9873 109.73 79.7414V75.6205Z" fill="white"/>
<path fill-rule="evenodd" clip-rule="evenodd" d="M109.73 87.8323C109.73 86.5864 108.721 85.5765 107.474 85.5765H103.353C102.107 85.5765 101.097 86.5864 101.097 87.8323V91.9531C101.097 93.199 102.107 94.2089 103.353 94.2089H107.474C108.721 94.2089 109.73 93.199 109.73 91.9531V87.8323Z" fill="white"/>
<path fill-rule="evenodd" clip-rule="evenodd" d="M109.73 100.044C109.73 98.7982 108.721 97.7883 107.474 97.7883H103.353C102.107 97.7883 101.097 98.7982 101.097 100.044V104.165C101.097 105.411 102.107 106.421 103.353 106.421H107.474C108.721 106.421 109.73 105.411 109.73 104.165V100.044Z" fill="white"/>
<path fill-rule="evenodd" clip-rule="evenodd" d="M123.092 63.4087C123.092 62.1628 122.083 61.153 120.836 61.153H116.715C115.469 61.153 114.459 62.1628 114.459 63.4087V67.5296C114.459 68.7755 115.469 69.7853 116.715 69.7853H120.836C122.083 69.7853 123.092 68.7755 123.092 67.5296V63.4087Z" fill="white"/>
<path fill-rule="evenodd" clip-rule="evenodd" d="M123.092 75.6205C123.092 74.3746 122.083 73.3647 120.836 73.3647H116.715C115.469 73.3647 114.459 74.3746 114.459 75.6205V79.7414C114.459 80.9873 115.469 81.9971 116.715 81.9971H120.836C122.083 81.9971 123.092 80.9873 123.092 79.7414V75.6205Z" fill="white"/>
<path fill-rule="evenodd" clip-rule="evenodd" d="M123.092 87.8323C123.092 86.5864 122.083 85.5765 120.836 85.5765H116.715C115.469 85.5765 114.459 86.5864 114.459 87.8323V91.9531C114.459 93.199 115.469 94.2089 116.715 94.2089H120.836C122.083 94.2089 123.092 93.199 123.092 91.9531V87.8323Z" fill="white"/>
<path fill-rule="evenodd" clip-rule="evenodd" d="M123.092 100.044C123.092 98.7982 122.083 97.7883 120.836 97.7883H116.715C115.469 97.7883 114.459 98.7982 114.459 100.044V104.165C114.459 105.411 115.469 106.421 116.715 106.421H120.836C122.083 106.421 123.092 105.411 123.092 104.165V100.044Z" fill="white"/>
<path fill-rule="evenodd" clip-rule="evenodd" d="M136.454 63.4087C136.454 62.1628 135.445 61.153 134.198 61.153H130.077C128.831 61.153 127.821 62.1628 127.821 63.4087V67.5296C127.821 68.7755 128.831 69.7853 130.077 69.7853H134.198C135.445 69.7853 136.454 68.7755 136.454 67.5296V63.4087Z" fill="white"/>
<path fill-rule="evenodd" clip-rule="evenodd" d="M136.454 75.6205C136.454 74.3746 135.445 73.3647 134.198 73.3647H130.077C128.831 73.3647 127.821 74.3746 127.821 75.6205V79.7414C127.821 80.9873 128.831 81.9971 130.077 81.9971H134.198C135.445 81.9971 136.454 80.9873 136.454 79.7414V75.6205Z" fill="white"/>
<path fill-rule="evenodd" clip-rule="evenodd" d="M136.454 87.8314C136.454 87.2333 136.216 86.6596 135.794 86.2363C135.37 85.8134 134.796 85.5758 134.198 85.5758H130.077C129.479 85.5758 128.905 85.8134 128.481 86.2363C128.059 86.6596 127.821 87.2333 127.821 87.8314V104.164C127.821 104.762 128.059 105.336 128.481 105.759C128.905 106.182 129.479 106.42 130.077 106.42H134.198C134.796 106.42 135.37 106.182 135.794 105.759C136.216 105.336 136.454 104.762 136.454 104.164V87.8314Z" fill="white"/>
<path d="M118.928 49.3753C118.928 50.3262 118.732 51.0536 118.338 51.5574C117.944 52.0611 117.369 52.3131 116.61 52.3131C115.86 52.3131 115.287 52.0659 114.89 51.5716C114.494 51.0772 114.29 50.3687 114.281 49.4462V48.1804C114.281 47.22 114.48 46.4911 114.878 45.9936C115.276 45.4961 115.851 45.2473 116.6 45.2473C117.349 45.2473 117.922 45.4937 118.319 45.9865C118.716 46.4793 118.919 47.187 118.928 48.1095V49.3753ZM117.563 47.9867C117.563 47.4168 117.486 47.002 117.33 46.7422C117.174 46.4824 116.931 46.3525 116.6 46.3525C116.278 46.3525 116.042 46.4761 115.889 46.7233C115.736 46.9704 115.655 47.357 115.646 47.8828V49.5548C115.646 50.1152 115.722 50.5317 115.875 50.8041C116.028 51.0764 116.272 51.2126 116.61 51.2126C116.943 51.2126 117.184 51.0819 117.332 50.8205C117.481 50.5592 117.557 50.1593 117.563 49.6209V47.9867ZM119.977 51.548C119.977 51.3306 120.05 51.1544 120.197 51.0189C120.343 50.8836 120.526 50.8159 120.747 50.8159C120.97 50.8159 121.156 50.8836 121.302 51.0189C121.448 51.1544 121.521 51.3306 121.521 51.548C121.521 51.762 121.449 51.936 121.304 52.0699C121.159 52.2036 120.974 52.2705 120.747 52.2705C120.524 52.2705 120.339 52.2036 120.194 52.0699C120.049 51.936 119.977 51.762 119.977 51.548ZM127.288 49.3753C127.288 50.3262 127.092 51.0536 126.698 51.5574C126.304 52.0611 125.729 52.3131 124.969 52.3131C124.22 52.3131 123.647 52.0659 123.25 51.5716C122.853 51.0772 122.65 50.3687 122.64 49.4462V48.1804C122.64 47.22 122.84 46.4911 123.238 45.9936C123.636 45.4961 124.21 45.2473 124.96 45.2473C125.709 45.2473 126.282 45.4937 126.679 45.9865C127.076 46.4793 127.279 47.187 127.288 48.1095V49.3753ZM125.923 47.9867C125.923 47.4168 125.846 47.002 125.69 46.7422C125.534 46.4824 125.291 46.3525 124.96 46.3525C124.638 46.3525 124.401 46.4761 124.249 46.7233C124.096 46.9704 124.015 47.357 124.006 47.8828V49.5548C124.006 50.1152 124.082 50.5317 124.235 50.8041C124.387 51.0764 124.632 51.2126 124.969 51.2126C125.303 51.2126 125.544 51.0819 125.692 50.8205C125.84 50.5592 125.917 50.1593 125.923 49.6209V47.9867ZM132.248 49.6304H133.027V50.7308H132.248V52.2186H130.882V50.7308H128.063L128.001 49.8712L130.868 45.3418H132.248V49.6304ZM129.362 49.6304H130.882V47.2026L130.792 47.3585L129.362 49.6304Z" fill="#023341"/>
<path fill-rule="evenodd" clip-rule="evenodd" d="M40.0394 91.0839C37.6596 86.6585 31.44 91.0839 31.44 91.0839C29.755 96.7009 28.145 101.991 25.9177 107.896C25.6247 109.133 34.7447 107.654 34.7689 103.819C34.8173 95.5751 41.1434 93.1372 40.0394 91.0839Z" fill="#F29F05"/>
<mask id="mask9_22_46" style="mask-type:luminance" maskUnits="userSpaceOnUse" x="25" y="89" width="16" height="20">
<path d="M40.0394 91.0839C37.6596 86.6585 31.44 91.0839 31.44 91.0839C29.755 96.7009 28.145 101.991 25.9177 107.896C25.6247 109.133 34.7447 107.654 34.7689 103.819C34.8173 95.5751 41.1434 93.1372 40.0394 91.0839Z" fill="white"/>
</mask>
<g mask="url(#mask9_22_46)">
<path fill-rule="evenodd" clip-rule="evenodd" d="M41.995 89.4253C38.151 89.5986 33.8673 92.6026 32.6408 96.4787C31.9743 98.5801 32.5251 100.965 31.0625 102.754C30.5556 103.376 29.866 103.865 29.0977 104.052C28.6163 104.168 28.1257 104.115 27.6582 104.303C26.7024 104.688 25.9202 105.623 25.5546 106.606C25.3995 107.025 25.2907 107.47 25.2977 107.923C25.344 110.724 28.4959 111.155 30.5487 110.809C34.9018 110.073 38.5537 106.698 41.0345 103.049C42.9901 100.176 41.5668 92.9101 41.995 89.4253Z" fill="#B16800"/>
</g>
<path fill-rule="evenodd" clip-rule="evenodd" d="M58.6851 74.2422C51.4546 80.3855 56.3262 94.0164 56.3262 94.0164L39.2634 90.4862C35.7034 93.3903 33.4633 98.9771 34.6454 105.328C34.6454 105.328 54.0969 110.137 61.457 107.73C74.1988 103.56 75.9423 81.4438 75.9423 81.4438C75.9423 81.4438 61.905 71.5076 58.6851 74.2422Z" fill="#023341"/>
<mask id="mask10_22_46" style="mask-type:luminance" maskUnits="userSpaceOnUse" x="34" y="73" width="42" height="36">
<path d="M58.6851 74.2422C51.4546 80.3855 56.3262 94.0164 56.3262 94.0164L39.2634 90.4862C35.7034 93.3903 33.4633 98.9771 34.6454 105.328C34.6454 105.328 54.0969 110.137 61.457 107.73C74.1988 103.56 75.9423 81.4438 75.9423 81.4438C75.9423 81.4438 61.905 71.5076 58.6851 74.2422Z" fill="white"/>
</mask>
<g mask="url(#mask10_22_46)">
<path fill-rule="evenodd" clip-rule="evenodd" d="M52.9926 79.9038C52.9345 82.9771 53.0943 86.3825 55.0432 88.9125C57.6918 92.3525 63.8122 94.3765 62.9624 99.6858C62.8631 100.303 62.6718 100.899 62.3741 101.448C60.9965 104 57.8153 104.99 55.111 105.191C49.8404 105.586 43.2915 104.293 39.7907 99.9473C38.5027 98.3494 37.607 96.4271 36.9727 94.4854C36.7887 93.9213 36.6264 93.3403 36.5199 92.7544C36.503 92.6624 36.4981 92.1733 36.4085 92.1273C36.227 92.0332 35.8541 92.7374 35.8009 92.8294C35.3094 93.6841 34.9342 94.6089 34.6073 95.5386C33.3944 99.0055 32.9489 102.76 34.4596 106.23C37.6215 113.498 46.9231 114.154 53.6535 112.784C62.161 111.052 71.5037 107.005 76.2247 99.3323C77.5611 97.1607 78.3988 94.7324 78.9702 92.2556C79.4084 90.3554 79.6457 88.4394 79.5004 86.4883C79.0501 80.4914 75.7212 74.7306 69.7655 72.7623C68.0199 72.1851 66.1945 71.9597 64.3593 71.9892C59.9482 72.0604 55.5468 73.7317 52.3752 76.8332C50.6369 78.5357 52.9635 77.4119 52.9926 79.9038Z" fill="#03222F"/>
</g>
<path fill-rule="evenodd" clip-rule="evenodd" d="M68.2103 53.6447C64.3416 52.278 53.907 50.7278 50.8638 56.8578C48.697 61.2265 54.6091 79.5574 54.6091 79.5574C57.7612 81.2197 67.7503 87.2088 70.9073 79.5391C74.7422 70.224 77.4634 69.9567 77.6232 68.1588C77.6232 68.1588 74.9698 66.9905 74.074 65.0571C72.2776 61.1755 72.0767 55.0111 68.2103 53.6447Z" fill="#F25C05"/>
<mask id="mask11_22_46" style="mask-type:luminance" maskUnits="userSpaceOnUse" x="50" y="52" width="28" height="32">
<path d="M68.2103 53.6447C64.3416 52.278 53.907 50.7278 50.8638 56.8578C48.697 61.2265 54.6091 79.5574 54.6091 79.5574C57.7612 81.2197 67.7503 87.2088 70.9073 79.5391C74.7422 70.224 77.4634 69.9567 77.6232 68.1588C77.6232 68.1588 74.9698 66.9905 74.074 65.0571C72.2776 61.1755 72.0767 55.0111 68.2103 53.6447Z" fill="white"/>
</mask>
<g mask="url(#mask11_22_46)">
<path fill-rule="evenodd" clip-rule="evenodd" d="M76.1786 77.7522C74.8785 77.9015 73.4259 77.4319 72.2348 76.9694C69.1456 75.7698 66.8287 73.7689 65.0904 70.9508C64.122 69.3832 63.2044 67.5859 61.6671 66.4928C61.3378 66.2589 60.2508 65.5464 59.9191 66.0807C59.5705 66.6376 59.8223 67.7171 59.8756 68.3109C60.0474 70.2603 60.2387 72.2085 60.4396 74.1553C60.555 75.2899 60.6971 76.4216 60.8657 77.5495C60.9916 78.3794 61.1321 79.2072 61.2991 80.0296C62.1271 84.0892 63.8194 89.8015 68.8768 89.8224C69.5087 89.825 70.1285 89.7209 70.7241 89.5151C71.6029 89.2125 72.4236 88.715 73.1475 88.1354C74.2563 87.2462 75.3022 78.8634 76.1786 77.7522Z" fill="#D23F00"/>
</g>
<path fill-rule="evenodd" clip-rule="evenodd" d="M93.5144 71.0663L70.0005 82.2621C70.0005 82.2621 60.1729 61.5225 54.9335 57.3186C51.7359 54.7525 45.696 58.7343 48.1634 69.204C50.6327 79.6785 58.754 93.4197 66.2505 95.0037C74.195 96.6799 96.3711 75.6277 96.3711 75.6277C96.3711 75.6277 99.3134 74.8685 99.575 74.0735C100.212 72.133 98.2493 70.9577 98.2493 70.9577C98.2493 70.9577 101.906 67.3826 101.437 66.7572C100.189 65.0921 93.5144 71.0663 93.5144 71.0663Z" fill="#FAD8BA"/>
<mask id="mask12_22_46" style="mask-type:luminance" maskUnits="userSpaceOnUse" x="47" y="56" width="55" height="40">
<path d="M93.5144 71.0663L70.0005 82.2621C70.0005 82.2621 60.1729 61.5225 54.9335 57.3186C51.7359 54.7525 45.696 58.7343 48.1634 69.204C50.6327 79.6785 58.754 93.4197 66.2505 95.0037C74.195 96.6799 96.3711 75.6277 96.3711 75.6277C96.3711 75.6277 99.3134 74.8685 99.575 74.0735C100.212 72.133 98.2493 70.9577 98.2493 70.9577C98.2493 70.9577 101.906 67.3826 101.437 66.7572C100.189 65.0921 93.5144 71.0663 93.5144 71.0663Z" fill="white"/>
</mask>
<g mask="url(#mask12_22_46)">
<path fill-rule="evenodd" clip-rule="evenodd" d="M100.147 71.2776C100.098 73.0232 98.3624 74.3976 96.7064 74.3075C96.2271 74.2814 95.7574 74.1596 95.3361 73.9296C95.2611 73.8879 94.7066 73.5088 94.6606 73.6032C94.5614 73.801 94.7599 74.1959 94.8035 74.392C94.9197 74.9125 94.9584 75.4086 94.6413 75.8657C94.1014 76.6399 93.2347 77.1476 92.4793 77.6822C91.0703 78.6813 89.6249 79.6272 88.2159 80.6285C84.0397 83.5974 79.8659 86.8125 75.0916 88.7692C72.4382 89.8574 69.4555 90.5065 66.6786 89.4756C59.8804 86.9524 57.5417 80.0061 55.9802 73.5442C53.9949 72.3262 49.8502 71.2733 47.94 72.9958C46.715 74.0993 46.4874 75.9674 46.5164 77.5221C46.606 82.2048 49.0416 86.9754 52.3051 90.2361C54.3 92.2298 56.7476 93.6485 59.3575 94.6847C70.2327 99.0086 82.972 95.2439 91.9903 88.408C96.9291 84.6641 99.9748 77.8015 100.147 71.2776ZM100.391 66.1528C100.948 66.9031 100.229 67.8616 99.7714 68.4455C99.6576 68.5908 99.539 68.7312 99.4179 68.8702C99.2751 69.0343 99.1298 69.1972 98.9797 69.3561C98.786 69.5648 98.5851 69.7684 98.3745 69.9633C98.0815 70.2373 97.7668 70.4983 97.4206 70.7036C97.3092 70.7697 97.1954 70.8319 97.0792 70.8874C97.0671 70.8924 96.8904 70.9757 96.9122 70.9936C96.9824 71.0452 97.2197 70.982 97.2971 70.9743C97.6482 70.9387 98.0138 70.9842 98.3672 70.9561C98.7643 70.9244 99.1565 70.8186 99.5196 70.6343C99.9021 70.4407 100.21 70.1 100.481 69.7773C101.025 69.1253 101.485 68.3814 101.776 67.5798C102.042 66.8445 101.529 65.9867 100.391 66.1528Z" fill="#D7B699"/>
<path fill-rule="evenodd" clip-rule="evenodd" d="M47.588 75.8319C49.3893 74.2374 52.5293 74.0861 54.7009 74.7182C56.2141 75.1584 57.8652 76.0239 59.4849 75.8496C61.6008 75.6217 61.7219 73.2266 63.3125 72.2996C63.9008 71.9578 64.5859 72.0459 65.2226 71.8774C66.3775 71.5704 66.8375 70.6144 67.0578 69.5273C68.2271 63.7179 62.2835 57.7523 56.5361 55.492C53.7761 54.4072 50.5634 53.7908 48.3458 56.2464C47.0239 57.7116 46.5325 59.7724 46.2807 61.6765C45.8158 65.1884 47.1353 72.3401 47.588 75.8319Z" fill="#F25C05"/>
</g>
<path fill-rule="evenodd" clip-rule="evenodd" d="M99.4421 34.7201C99.2557 33.3975 98.7231 32.8419 98.7231 32.8419C98.7231 32.8419 103.568 32.2948 104.773 34.8322C106.127 37.6784 103.873 38.6485 101.863 38.6485C100.212 38.6485 99.6818 37.989 99.5438 36.6371C99.4687 36.7325 99.384 36.8264 99.292 36.9174C98.573 37.6336 97.6699 37.8943 97.2753 37.4987C96.8831 37.1034 97.147 36.2008 97.866 35.4844C98.3817 34.9717 98.9918 34.6925 99.4421 34.7201Z" fill="#FAD8BA"/>
<mask id="mask13_22_46" style="mask-type:luminance" maskUnits="userSpaceOnUse" x="97" y="32" width="9" height="7">
<path d="M99.4421 34.7201C99.2557 33.3975 98.7231 32.8419 98.7231 32.8419C98.7231 32.8419 103.568 32.2948 104.773 34.8322C106.127 37.6784 103.873 38.6485 101.863 38.6485C100.212 38.6485 99.6818 37.989 99.5438 36.6371C99.4687 36.7325 99.384 36.8264 99.292 36.9174C98.573 37.6336 97.6699 37.8943 97.2753 37.4987C96.8831 37.1034 97.147 36.2008 97.866 35.4844C98.3817 34.9717 98.9918 34.6925 99.4421 34.7201Z" fill="white"/>
</mask>
<g mask="url(#mask13_22_46)">
<path fill-rule="evenodd" clip-rule="evenodd" d="M105.289 35.4835C105.269 35.7162 105.18 35.9445 105.083 36.1541C104.546 37.3281 103.323 37.7547 102.112 37.8309C101.543 37.867 100.902 37.8309 100.425 37.4816C100.059 37.2145 99.8464 36.8204 99.7326 36.3904C99.6939 36.25 99.6672 36.1055 99.6503 35.9612C99.6478 35.9462 99.6357 35.7445 99.6261 35.7452C99.5825 35.7489 99.5365 35.9082 99.522 35.9392C99.4372 36.1331 99.3404 36.3239 99.2169 36.4974C98.8804 36.9717 98.2872 37.3126 97.7086 37.3651C97.4762 37.3862 97.2244 37.384 97.0477 37.2116C97.1058 38.7165 98.6455 39.4854 99.9263 39.7622C102.151 40.242 105.156 39.8597 105.957 37.3588C106.073 36.9988 105.303 35.8605 105.289 35.4835Z" fill="#D7B699"/>
</g>
<path fill-rule="evenodd" clip-rule="evenodd" d="M57.9183 48.6827L53.1534 50.3189C53.3061 51.6287 53.2024 52.8947 52.7253 54.6539C59.198 59.4668 61.3935 59.8516 58.9585 52.1863C57.6082 51.046 57.9504 50.3146 57.9183 48.6827Z" fill="#FAD8BA"/>
<mask id="mask14_22_46" style="mask-type:luminance" maskUnits="userSpaceOnUse" x="52" y="48" width="8" height="11">
<path d="M57.9183 48.6827L53.1534 50.3189C53.3061 51.6287 53.2024 52.8947 52.7253 54.6539C59.198 59.4668 61.3935 59.8516 58.9585 52.1863C57.6082 51.046 57.9504 50.3146 57.9183 48.6827Z" fill="white"/>
</mask>
<g mask="url(#mask14_22_46)">
<path fill-rule="evenodd" clip-rule="evenodd" d="M52.705 51.0939C53.1138 51.998 54.0769 52.7322 54.8594 53.3332C55.4528 53.788 56.0417 54.146 56.7692 54.3579C57.3922 54.5392 58.0672 54.6377 58.6905 54.4563C59.9953 54.0753 60.5036 52.6587 60.0009 51.4724C59.2629 49.7286 56.9832 48.8644 55.1671 48.8033C53.9031 48.7607 53.2962 50.0058 52.705 51.0939Z" fill="#D7B699"/>
</g>
<path fill-rule="evenodd" clip-rule="evenodd" d="M55.7164 42.5542C58.0382 42.5542 59.9242 44.9863 59.9242 47.9819C59.9242 50.9775 59.8225 53.4096 57.5007 53.4096C55.1766 53.4096 51.5087 50.9775 51.5087 47.9819C51.5087 44.9863 53.3947 42.5542 55.7164 42.5542Z" fill="#FAD8BA"/>
<mask id="mask15_22_46" style="mask-type:luminance" maskUnits="userSpaceOnUse" x="51" y="42" width="9" height="12">
<path d="M55.7164 42.5542C58.0382 42.5542 59.9242 44.9863 59.9242 47.9819C59.9242 50.9775 59.8225 53.4096 57.5007 53.4096C55.1766 53.4096 51.5087 50.9775 51.5087 47.9819C51.5087 44.9863 53.3947 42.5542 55.7164 42.5542Z" fill="white"/>
</mask>
<g mask="url(#mask15_22_46)">
<path fill-rule="evenodd" clip-rule="evenodd" d="M61.4612 45.7807C61.1271 46.3271 60.4323 46.9958 59.8004 47.1306C58.9555 47.3107 58.0743 47.0701 57.2971 47.5526C56.7814 47.871 56.5151 48.3714 56.365 48.9384C56.3045 49.1647 56.2585 49.3947 56.1931 49.6201C56.181 49.6637 56.1326 49.8317 56.0576 49.7727C55.9389 49.6795 55.922 49.4264 55.9075 49.2938C55.8566 48.8725 55.8566 48.4401 55.8856 48.0177C55.9898 46.5195 56.7258 45.0875 58.3236 44.8215C58.6553 44.7665 61.1296 45.7414 61.4612 45.7807Z" fill="#D7B699"/>
</g>
<path fill-rule="evenodd" clip-rule="evenodd" d="M57.0696 46.654C57.5029 46.3134 58.2511 46.6317 58.82 46.5243C59.9748 46.3064 61.1805 45.9451 61.9286 44.9663C62.558 44.1434 62.8268 43.0278 62.9042 42.0129C62.9648 41.2438 62.8631 40.4248 62.5048 39.7336C61.9092 38.5845 60.3428 37.933 59.2582 38.8593C58.6311 39.3961 58.3479 40.2625 58.13 41.0307C58.0089 40.8968 57.6918 40.8588 57.5272 40.8237C56.8541 40.6797 56.1496 40.686 55.4717 40.7661C54.8737 40.8368 54.2951 40.9537 53.748 41.2109C51.7966 42.127 50.9033 44.1565 51.1478 46.234C50.9565 46.1962 50.7726 46.5269 50.6951 46.6543C50.3561 47.2147 50.223 47.8277 50.2448 48.4816C50.2859 49.6904 51.2471 50.6903 52.3777 51.0038C53.1597 51.2203 54.0458 51.099 54.4307 50.3172C54.5639 50.0459 54.6074 49.7444 54.6389 49.4466C54.0191 49.1503 53.8448 48.1839 53.9901 47.5873C54.0748 47.2493 54.2879 46.8237 54.697 46.8474C55.0941 46.8707 55.3362 47.2392 55.4596 47.5771C55.7598 48.3988 55.3725 49.252 55.6267 50.0529C55.7284 50.3664 56.0625 50.607 56.244 50.2102C56.3603 49.9526 56.3215 49.6403 56.2949 49.368C56.2682 49.1017 56.2247 48.8361 56.2101 48.5685C56.1787 48.0425 56.6338 46.9949 57.0696 46.654Z" fill="#03222F"/>
</svg>
