<svg width="200" height="133" viewBox="0 0 200 133" fill="none" xmlns="http://www.w3.org/2000/svg">
<g clip-path="url(#clip0_22_914)">
<path d="M134.83 112.69H66.946V70.2361C66.946 69.4337 67.5844 68.7837 68.3716 68.7837H133.405C134.192 68.7837 134.83 69.4337 134.83 70.2361V112.69Z" fill="#D3D3D3"/>
<path d="M69.4308 71.8596H132.347V109.298H69.4308V71.8596Z" fill="#F2F2F2"/>
<path d="M56.1496 125.328C55.5256 126.144 56.718 128.581 58.588 128.581H144.64C146.508 128.581 147.686 126.144 146.97 125.328H56.1496Z" fill="#D3D3D3"/>
<path d="M146.73 124.882C147.446 125.697 146.508 126.358 144.64 126.358H58.5883C56.7183 126.358 55.7087 125.697 56.3327 124.882L65.1427 113.363C65.7667 112.548 67.3996 111.887 68.7908 111.887H132.811C134.201 111.887 135.91 112.548 136.625 113.363C139.992 117.204 143.362 121.042 146.73 124.882Z" fill="#F2F2F2"/>
<g opacity="0.5">
<path d="M75.444 115.772H72.5376C72.9488 115.163 73.1548 114.858 73.5652 114.249H76.3568L75.444 115.772ZM79.2108 115.772H76.3044C76.6564 115.163 76.8324 114.858 77.1836 114.249H79.9744L79.2108 115.772ZM78.0072 113.957H73.7644L74.1476 113.389H78.326L78.0072 113.957ZM82.98 113.957L78.736 113.957L79.0428 113.389H83.2212C83.1252 113.616 83.076 113.73 82.98 113.957ZM87.9532 113.957H83.7088L83.9384 113.389H88.1188L87.9532 113.957ZM92.9256 113.957H88.6824L88.8348 113.389H93.014C92.9796 113.616 92.9616 113.73 92.9256 113.957ZM97.8992 113.957H93.6548L93.732 113.389H97.91L97.8992 113.957ZM102.872 113.957H98.6288V113.389H102.807C102.833 113.616 102.845 113.73 102.872 113.957ZM107.846 113.957H103.602L103.524 113.389H107.704C107.76 113.616 107.788 113.73 107.846 113.957ZM112.819 113.957H108.575L108.421 113.389H112.6C112.688 113.616 112.732 113.73 112.819 113.957ZM117.792 113.957H113.548C113.455 113.73 113.409 113.616 113.316 113.389H117.497L117.792 113.957ZM122.764 113.957H118.521C118.398 113.73 118.336 113.616 118.214 113.389H122.392C122.54 113.616 122.615 113.73 122.764 113.957ZM128.314 113.957H123.494L123.11 113.389H127.856C128.038 113.616 128.131 113.73 128.314 113.957ZM82.976 115.772H80.0704C80.3624 115.163 80.5092 114.858 80.8004 114.249L83.5912 114.249C83.3456 114.859 83.2224 115.162 82.976 115.772ZM86.742 115.772H83.836C84.0692 115.163 84.1852 114.858 84.4188 114.249L87.2096 114.249L86.742 115.772ZM90.5088 115.772H87.6032C87.7768 115.162 87.864 114.858 88.0368 114.249H90.8276C90.7004 114.858 90.6356 115.163 90.5088 115.772ZM94.2748 115.772H91.3692C91.4828 115.163 91.5388 114.857 91.6536 114.249H94.4452C94.3764 114.858 94.3416 115.163 94.2748 115.772ZM98.0388 115.772H95.1356L95.2716 114.249H98.0616C98.0532 114.858 98.0488 115.163 98.0388 115.772ZM101.807 115.772H98.9012L98.89 114.249H101.68C101.731 114.858 101.756 115.163 101.807 115.772ZM105.572 115.772H102.668L102.509 114.249H105.298C105.408 114.858 105.462 115.163 105.572 115.772ZM109.338 115.772H106.433C106.31 115.163 106.248 114.858 106.124 114.249H108.915C109.084 114.858 109.168 115.163 109.338 115.772ZM74.2268 117.802H71.1696L72.1952 116.279H75.1396L74.2268 117.802ZM78.192 117.802H75.1336C75.4856 117.193 75.6616 116.889 76.0128 116.279H78.9572C78.6504 116.888 78.4968 117.193 78.192 117.802ZM82.1556 117.802H79.0972C79.3892 117.193 79.5344 116.889 79.8272 116.279H82.7704C82.5244 116.889 82.4008 117.193 82.1556 117.802ZM86.1196 117.802H83.0604C83.2932 117.193 83.41 116.889 83.642 116.279H86.5868C86.3996 116.889 86.306 117.193 86.1196 117.802ZM90.084 117.802H87.026C87.1996 117.193 87.2856 116.889 87.4588 116.281C88.6368 116.281 89.2244 116.279 90.4024 116.279C90.274 116.889 90.2112 117.193 90.084 117.802ZM94.0464 117.802H90.9884L91.2736 116.279H94.2168C94.1492 116.888 94.1144 117.193 94.0464 117.802ZM98.0096 117.802H94.9528L95.0896 116.279H98.0312L98.0096 117.802ZM101.974 117.802H98.9164L98.9052 116.279H101.848C101.898 116.889 101.925 117.193 101.974 117.802ZM105.938 117.802H102.881C102.817 117.193 102.784 116.889 102.722 116.279H105.663L105.938 117.802ZM109.901 117.802H106.844C106.72 117.193 106.658 116.889 106.535 116.279H109.478L109.901 117.802ZM73.0108 119.833H69.8C70.21 119.224 70.4164 118.919 70.8272 118.31L73.9236 118.309C73.5584 118.918 73.3752 119.223 73.0108 119.833ZM77.1724 119.833H73.9624L74.8404 118.31H77.9376C77.6316 118.918 77.478 119.223 77.1724 119.833ZM81.3348 119.833H78.1232L78.8532 118.31H81.9496L81.3348 119.833ZM85.496 119.833H82.284L82.866 118.31H85.9632L85.496 119.833ZM89.6572 119.833H86.4476C86.6204 119.224 86.7084 118.919 86.8804 118.31H89.9764C89.85 118.918 89.7856 119.223 89.6572 119.833ZM93.818 119.833H90.608C90.7216 119.224 90.7796 118.919 90.8936 118.31H93.99L93.818 119.833ZM97.9788 119.833H94.7704L94.9064 118.31H98.0012C97.9932 118.918 97.9884 119.223 97.9788 119.833ZM102.143 119.833H98.932C98.9284 119.224 98.9256 118.919 98.9208 118.31H102.017C102.068 118.918 102.092 119.223 102.143 119.833ZM106.304 119.833H103.095C103.031 119.224 102.998 118.919 102.935 118.31H106.03C106.139 118.918 106.195 119.223 106.304 119.833ZM110.464 119.833H107.254C107.131 119.224 107.07 118.919 106.946 118.31H110.042L110.464 119.833ZM71.794 121.862H68.4304C68.8408 121.253 69.0476 120.949 69.458 120.34H72.706C72.4025 120.848 72.0985 121.355 71.794 121.862ZM76.154 121.862H72.7912L73.6704 120.34H76.9192C76.6132 120.949 76.4592 121.253 76.154 121.862ZM80.5128 121.862H77.15C77.442 121.253 77.5884 120.949 77.8812 120.34H81.1288C80.8828 120.949 80.76 121.253 80.5128 121.862ZM84.858 121.91H81.4892C81.7308 121.283 81.85 120.968 82.09 120.341H85.34C85.1472 120.968 85.0512 121.283 84.858 121.91ZM111.029 121.862H85.8688C86.0412 121.253 86.1276 120.949 86.3012 120.34H110.606L111.029 121.862ZM92.4312 125.207H111.518L109.91 122.613H93.9504L92.4312 125.207ZM112.746 115.772H109.84C109.662 115.163 109.574 114.858 109.398 114.249H112.188C112.411 114.857 112.522 115.163 112.746 115.772ZM113.488 117.802H110.429C110.252 117.193 110.164 116.889 109.987 116.279H112.932C113.154 116.889 113.265 117.193 113.488 117.802ZM114.23 119.833H111.019C110.842 119.224 110.755 118.919 110.578 118.31H113.674C113.896 118.918 114.007 119.223 114.23 119.833ZM114.973 121.862H111.609L111.167 120.34H114.416L114.973 121.862ZM116.152 115.772H113.246C113.015 115.163 112.899 114.858 112.67 114.249H115.461C115.736 114.858 115.875 115.163 116.152 115.772ZM117.074 117.802H114.015C113.784 117.193 113.668 116.889 113.439 116.279H116.382C116.658 116.888 116.797 117.193 117.074 117.802ZM117.994 119.833H114.784L114.206 118.31H117.303C117.58 118.918 117.718 119.223 117.994 119.833ZM118.916 121.862H115.552C115.322 121.253 115.206 120.949 114.976 120.34H118.224C118.501 120.949 118.638 121.253 118.916 121.862ZM119.558 115.772H116.653L115.942 114.249H118.733C119.063 114.858 119.229 115.163 119.558 115.772ZM120.658 117.802H117.6L116.889 116.279H119.833C120.163 116.889 120.329 117.193 120.658 117.802ZM121.759 119.833H118.548C118.264 119.224 118.122 118.919 117.837 118.31H120.934L121.759 119.833ZM122.859 121.862H119.495C119.211 121.253 119.07 120.949 118.784 120.34H122.034L122.859 121.862ZM122.964 115.772H120.059L119.214 114.249H122.004C122.39 114.858 122.58 115.163 122.964 115.772ZM124.244 117.802H121.186L120.341 116.279H123.284C123.668 116.889 123.861 117.193 124.244 117.802ZM125.523 119.833H122.313C121.975 119.224 121.806 118.919 121.468 118.31H124.564C124.948 118.918 125.14 119.223 125.523 119.833ZM126.802 121.862H123.439C123.158 121.354 122.876 120.847 122.594 120.34H125.843C126.226 120.949 126.418 121.253 126.802 121.862ZM126.372 115.772H123.466C123.073 115.163 122.877 114.858 122.485 114.249H125.277C125.715 114.858 125.933 115.163 126.372 115.772ZM127.829 117.802H124.77C124.378 117.193 124.183 116.889 123.792 116.279H126.736C127.173 116.889 127.392 117.193 127.829 117.802ZM129.288 119.833H126.076C125.684 119.224 125.489 118.919 125.097 118.31H128.194C128.632 118.918 128.85 119.223 129.288 119.833ZM130.745 121.862H127.381L126.402 120.34H129.652L130.745 121.862ZM129.777 115.772H126.872C126.426 115.163 126.204 114.858 125.758 114.249H128.55C129.04 114.858 129.286 115.163 129.777 115.772ZM131.414 117.802H128.356C127.912 117.193 127.688 116.889 127.243 116.279H130.186L131.414 117.802ZM133.051 119.833H129.84C129.395 119.224 129.173 118.919 128.727 118.31H131.824C132.315 118.918 132.56 119.223 133.051 119.833ZM134.688 121.862H131.324L130.212 120.34H133.46C133.952 120.949 134.196 121.253 134.688 121.862Z" fill="#D3D3D3"/>
</g>
<path d="M116.999 109.288H87.0436C87.2576 108.418 87.4536 107.724 87.6256 107.24C87.7147 106.992 87.8374 106.757 87.9904 106.543C88.5212 105.791 89.43 105.151 90.6008 104.61C91.9984 103.964 93.7672 103.456 95.7064 103.053C97.7668 102.631 100.014 102.326 102.203 102.106C102.351 102.093 102.497 102.077 102.645 102.064C105.079 101.837 107.418 101.712 109.304 101.652C111.909 101.562 113.665 101.581 113.665 101.581C113.665 101.581 113.806 101.805 114.053 102.253C114.631 103.316 115.786 105.644 116.999 109.288Z" fill="#0B4870"/>
<path d="M94.0521 60.4092C93.9953 60.7932 93.8953 61.1488 93.7537 61.4912L93.8385 60.5232C93.9101 60.48 93.9817 60.452 94.0521 60.4092Z" fill="#FFE3CA"/>
<path d="M109.92 58.9718V58.9846C109.89 58.9718 109.862 58.957 109.848 58.957C109.877 58.9574 109.89 58.9718 109.92 58.9718Z" fill="#EEBEA7"/>
<path d="M140.662 79.3989C140.662 79.3989 142.513 77.6837 142.146 76.3969C141.835 75.3049 142.304 74.0817 142.421 73.5741C142.58 72.9017 142.643 70.7189 143.145 70.8377C143.994 71.0441 143.798 74.5285 143.902 75.2713C144.007 76.0133 146.257 73.5281 147.024 73.3981C147.793 73.2653 151.698 77.2237 149.958 78.7525C148.218 80.2781 145.819 80.8973 145.565 81.2269C145.312 81.5565 144.12 82.4621 144.12 82.4621L140.662 79.3989Z" fill="#F1B99E"/>
<path d="M146.533 73.6564C146.533 73.6564 152.173 69.3364 152.79 69.3624C153.408 69.3872 153.622 69.7088 153.111 70.1336C152.602 70.5596 147.785 74.4684 147.785 74.4684C147.785 74.4684 155.318 70.4748 155.829 70.3856C156.126 70.3328 156.354 70.904 156.1 71.158C155.848 71.4092 148.838 75.8196 148.838 75.8196C148.838 75.8196 155.878 72.1028 156.327 72.1556C156.72 72.2032 157.001 72.852 156.498 73.1632C155.994 73.474 149.654 77.294 149.654 77.294C149.654 77.294 154.95 74.9132 155.303 75.1792C155.517 75.344 155.822 75.7056 154.439 76.2768C153.052 76.8488 150.038 78.6748 150.038 78.6748L146.533 73.6564Z" fill="#F1B99E"/>
<path d="M106.262 55.2427V55.6267C106.232 55.5567 106.205 55.4991 106.191 55.4279C106.162 55.4139 106.162 55.3859 106.162 55.3703C106.191 55.3287 106.219 55.2867 106.262 55.2427Z" fill="#FFBE55"/>
<path d="M102.022 57.5775C101.965 57.5907 101.892 57.5907 101.836 57.5907V57.5627C101.892 57.5775 101.965 57.5775 102.022 57.5775ZM106.262 55.2427V55.3571C106.238 55.3802 106.214 55.4038 106.191 55.4279C106.035 55.5987 105.863 55.7547 105.693 55.9119C105.621 55.9691 105.565 56.0251 105.494 56.0823C105.579 55.9979 105.678 55.8975 105.765 55.8123C105.893 55.6843 106.02 55.5279 106.162 55.3703C106.191 55.3287 106.219 55.2867 106.262 55.2427Z" fill="#EEBEA7"/>
<path d="M109.521 50.3341C108.738 52.0705 107.784 53.6361 106.702 54.8741C106.561 55.0445 106.404 55.2149 106.262 55.3577V55.2433C106.219 55.2869 106.191 55.3293 106.162 55.3709C106.02 55.5285 105.893 55.6849 105.765 55.8129C105.678 55.8985 105.578 55.9985 105.494 56.0829C105.464 56.0977 105.437 56.1265 105.408 56.1545C105.365 56.1969 105.323 56.2401 105.279 56.2541C105.167 56.3522 105.048 56.4424 104.924 56.5241C104.768 56.6381 104.626 56.7373 104.47 56.8229C104.432 56.848 104.394 56.8719 104.356 56.8945C104.212 56.9789 104.071 57.0505 103.944 57.1069C103.816 57.1756 103.682 57.2329 103.544 57.2781L103.53 57.2925C103.417 57.3213 103.331 57.3637 103.231 57.3921C103.202 57.4065 103.175 57.4209 103.145 57.4209C103.047 57.4489 102.947 57.4769 102.846 57.4921C102.819 57.4921 102.804 57.5057 102.776 57.5057H102.732C102.662 57.5209 102.577 57.5349 102.506 57.5493C102.434 57.5629 102.349 57.5629 102.278 57.5629C102.208 57.5777 102.135 57.5777 102.078 57.5777H102.064C102.051 57.5909 102.036 57.5909 102.022 57.5777C101.965 57.5777 101.893 57.5777 101.837 57.5629V57.5909C101.752 57.5909 101.666 57.5777 101.567 57.5629C101.467 57.5493 101.353 57.5349 101.253 57.5209C101.196 57.5057 101.14 57.5057 101.068 57.4921C101.012 57.4769 100.954 57.4769 100.897 57.4489C100.599 57.3777 100.315 57.2637 100.016 57.1069C99.9221 57.0609 99.8316 57.0091 99.7448 56.9517C99.2756 56.6813 98.8196 56.2969 98.3496 55.8125C98.1804 55.6429 98.0232 55.4429 97.8524 55.2429C97.1268 54.3321 96.402 53.1237 95.7324 51.5869C95.4594 50.9723 95.203 50.3505 94.9636 49.7221C95.3188 50.4193 94.6992 43.9153 94.842 44.1437C92.9072 40.4437 94.8356 43.4889 95.5204 41.6541C99.8024 43.4609 108.126 46.5777 108.126 43.4181C108.126 43.4181 108.311 45.3393 108.525 47.3313C108.696 48.9677 108.881 50.6621 108.967 51.3021C108.966 51.3017 109.193 50.9457 109.521 50.3341Z" fill="#F4C7B1"/>
<path d="M102.022 57.5775C101.965 57.5907 101.892 57.5907 101.836 57.5907V57.5627C101.892 57.5775 101.965 57.5775 102.022 57.5775ZM106.262 55.2427V55.3571C106.238 55.3802 106.214 55.4038 106.191 55.4279C106.035 55.5987 105.863 55.7547 105.693 55.9119C105.621 55.9691 105.565 56.0251 105.494 56.0823C105.579 55.9979 105.678 55.8975 105.765 55.8123C105.893 55.6843 106.02 55.5279 106.162 55.3703C106.191 55.3287 106.219 55.2867 106.262 55.2427Z" fill="#EEBEA7"/>
<path d="M94.9628 49.722C93.8236 47.4736 91.9884 43.1768 92.316 39.1064V39.0916C91.8044 35.7196 96.002 29.6432 102.406 29.956C108.809 29.6432 113.008 35.7196 112.495 39.0916V39.1064C112.693 41.568 112.096 44.1008 111.356 46.222C111.826 46.2064 112.28 46.2636 112.736 46.4204C115.284 47.2604 116.478 50.576 115.397 53.8064C114.33 57.0504 111.384 58.9852 108.837 58.146C107.656 57.7616 106.759 56.8372 106.262 55.6268V55.3572C106.403 55.2148 106.561 55.044 106.702 54.8736C107.784 53.6356 108.738 52.07 109.52 50.3336C109.192 50.9456 108.993 51.6976 108.993 51.6976C108.907 51.0584 108.694 48.9672 108.524 47.3308C108.309 45.3388 108.125 43.4176 108.125 43.4176C108.125 46.5776 99.8012 43.4604 95.5192 41.6536L94.9628 49.722Z" fill="#FFBE55"/>
<path d="M106.262 55.2427V55.6267C106.262 55.8975 106.249 56.2247 106.262 56.5947C105.849 57.1067 105.437 57.5343 105.01 57.8611C104.866 57.9751 104.725 58.0751 104.583 58.1743C104.476 58.2552 104.361 58.3265 104.241 58.3875H104.228C103.573 58.7571 102.918 58.9423 102.278 58.9567H101.95C101.908 58.9567 101.866 58.9567 101.836 58.9423V57.5619C101.892 57.5767 101.965 57.5767 102.022 57.5767C102.036 57.5899 102.05 57.5899 102.064 57.5767H102.078C102.15 57.5899 102.207 57.5899 102.278 57.5899C102.364 57.5899 102.463 57.5767 102.548 57.5619C102.647 57.5483 102.762 57.5339 102.862 57.5199C102.918 57.5047 102.974 57.5047 103.047 57.4911C103.104 57.4759 103.16 57.4759 103.218 57.4479C103.516 57.3767 103.8 57.2627 104.098 57.1059C104.185 57.0643 104.285 57.0075 104.369 56.9507C104.682 56.7799 104.981 56.5511 105.28 56.2527C105.323 56.2387 105.366 56.1955 105.409 56.1531C105.437 56.1251 105.464 56.0963 105.494 56.0815C105.579 55.9971 105.678 55.8967 105.765 55.8115C105.893 55.6835 106.02 55.5271 106.162 55.3695C106.191 55.3287 106.219 55.2867 106.262 55.2427Z" fill="#A5735B"/>
<path d="M101.837 67.438V105.96L108.483 105.676L113.948 105.434L113.392 98.7028L112.78 91.174C111.832 91.5766 110.887 91.9897 109.948 92.4132C110.204 89.4388 110.318 86.7068 110.147 84.472C109.478 76.1612 108.44 69.388 107.628 64.9624V64.948C107.713 64.0944 107.599 63.1408 107.401 62.2588C107.372 62.0769 107.334 61.8964 107.287 61.718C107.23 61.5184 107.188 61.334 107.131 61.1488L107.002 60.7224C106.974 60.6228 106.931 60.5232 106.904 60.4372C106.799 60.0891 106.675 59.747 106.532 59.4128H106.505C106.619 59.9256 107.017 61.6332 107.514 64.322V64.3368C107.189 65.7596 106.149 66.5564 104.868 66.9984C104.854 66.9984 104.826 67.0116 104.81 67.0116C103.93 67.3112 102.933 67.4244 101.98 67.4384C101.938 67.438 101.88 67.4528 101.837 67.438Z" fill="#0E538C"/>
<path d="M117.02 79.4217C117.362 79.9469 117.845 80.9149 118.329 82.0109C118.259 83.2205 118.173 83.9453 118.173 83.9453C118.173 83.9453 117.647 85.3257 116.949 87.4897C116.763 88.0293 114.972 97.5925 114.773 98.2193C114.73 98.3329 114.7 98.4609 114.659 98.5749C114.004 98.9013 114.15 98.3317 113.011 98.7885C112.671 98.9301 112.3 99.0725 111.916 99.2425C111.859 99.2725 111.788 99.3001 111.687 99.3425C111.574 99.3853 111.46 99.4281 111.346 99.4849C110.589 99.8105 109.835 100.143 109.084 100.481C109.34 97.5069 110.318 86.7069 110.147 84.4725C109.478 76.1617 108.44 69.3885 107.629 64.9629V64.9485C107.585 64.7353 107.558 64.5365 107.515 64.3369V64.3221C107.017 61.6333 106.619 59.9261 106.504 59.4129H110.19V59.4421C111.214 59.3705 116.048 58.6901 119.35 61.8349C117.528 61.0521 115.114 61.7605 114.304 62.2593C113.976 62.4469 113.674 62.6765 113.406 62.9421C112.993 63.3272 112.656 63.7857 112.41 64.2941C110.048 69.1753 116.024 77.9121 117.02 79.4217Z" fill="#2A94F4"/>
<path d="M117.289 109.288H108.13C108.226 108.12 108.348 106.91 108.482 105.676C108.62 104.352 108.783 103.006 108.939 101.652C108.991 101.185 109.045 100.72 109.096 100.254C109.096 100.254 109.1 100.254 109.103 100.251C110.216 99.8444 111.678 97.954 113.281 97.3208C113.319 97.3076 113.354 97.292 113.393 97.2788C113.85 97.1224 114.304 98.3888 114.772 98.2192C115.072 101.399 116.144 105.548 117.289 109.288Z" fill="#2A94F4"/>
<path d="M101.837 58.9433V67.4385C101.88 67.4533 101.938 67.4385 101.981 67.4385C102.934 67.4245 103.93 67.3113 104.811 67.0117C104.827 67.0117 104.854 66.9985 104.868 66.9985C106.149 66.5565 107.189 65.7597 107.515 64.3369V64.3221C107.018 61.6333 106.62 59.9261 106.505 59.4129H106.306V59.1429C106.306 58.9725 106.291 58.8157 106.291 58.6589C106.277 58.1465 106.277 57.6629 106.263 57.1929V56.5957C105.851 57.1077 105.438 57.5353 105.011 57.8621C104.879 57.9797 104.737 58.0846 104.585 58.1753C104.477 58.2558 104.363 58.3271 104.243 58.3885H104.23C103.531 58.7873 102.848 58.9577 102.166 58.9577C102.051 58.9577 101.938 58.9577 101.837 58.9433Z" fill="#F4C7B1"/>
<path d="M142.663 77.6046L142.992 78.1906L143.002 78.2018L145.573 82.747L145.97 83.4466C145.97 83.4466 145.191 83.7606 143.965 84.2794C142.849 84.751 141.368 85.3706 139.762 86.0658C139.317 86.2647 138.869 86.4594 138.42 86.6498C135.298 88.035 132.01 89.5138 130.364 90.4602C126.774 92.511 123.786 93.2274 121.965 93.1898C120.154 93.1418 116.183 82.4226 115.562 79.851C114.934 77.2906 112.61 72.5726 110.945 68.0802C110.241 66.1714 110.444 64.487 111.048 63.1498C111.85 61.337 113.363 60.1654 114.297 59.9782C114.665 59.8938 115.042 59.8568 115.42 59.8682C116.002 59.8706 116.551 59.9822 117.067 60.1818C122.121 62.151 123.686 72.6206 123.982 74.4038C124.09 75.0226 124.394 76.0602 124.785 77.193C125.652 79.843 126.914 83.041 126.914 83.041C129.452 81.9474 130.499 81.635 131.466 81.3578C132.168 81.1526 132.83 80.9854 133.975 80.5454C134.32 80.4174 134.689 80.2682 135.086 80.1326C136.055 79.7817 137.028 79.4421 138.005 79.1138C140.42 78.3066 142.663 77.6046 142.663 77.6046Z" fill="#2A94F4"/>
<path d="M102.278 57.5629V58.9433C102.236 58.9577 102.208 58.9577 102.164 58.9577H101.836C101.195 58.9433 100.54 58.7581 99.8856 58.3885H99.872C99.7523 58.3269 99.6379 58.2556 99.53 58.1753C99.3849 58.0751 99.2428 57.9707 99.104 57.8621C98.6772 57.5353 98.264 57.1073 97.8516 56.5957C97.8652 56.0409 97.8516 55.5709 97.8516 55.2437C98.0224 55.4437 98.1796 55.6433 98.3488 55.8133C98.8188 56.2977 99.2748 56.6825 99.744 56.9525C99.8296 57.0093 99.9292 57.0665 100.015 57.1077C100.314 57.2645 100.598 57.3785 100.896 57.4497C100.953 57.4777 101.01 57.4777 101.067 57.4929C101.14 57.5065 101.195 57.5065 101.252 57.5217C101.352 57.5357 101.466 57.5501 101.566 57.5637C101.665 57.5785 101.751 57.5917 101.836 57.5917C101.892 57.5917 101.964 57.5917 102.021 57.5785C102.036 57.5917 102.05 57.5917 102.064 57.5785H102.077C102.134 57.5777 102.207 57.5777 102.278 57.5629Z" fill="#A5735B"/>
<path d="M102.278 67.438V105.96L95.632 105.676L90.1676 105.434L90.7228 98.7028L91.3344 91.174C92.2168 91.5452 93.2132 91.9856 94.1672 92.4132C93.91 89.4388 93.798 86.7068 93.968 84.472C94.6364 76.1612 95.6744 69.388 96.4856 64.9624V64.948C96.4016 64.0944 96.5156 63.1408 96.714 62.2588C96.7416 62.0724 96.7852 61.8892 96.8284 61.718C96.8856 61.5184 96.9264 61.334 96.9836 61.1488L97.1128 60.7224C97.1408 60.6228 97.184 60.5232 97.212 60.4372C97.3169 60.0893 97.4405 59.7474 97.5824 59.4128H97.61C97.4964 59.9256 97.0972 61.6332 96.6 64.322V64.3368C96.9264 65.7596 97.9664 66.5564 99.248 66.9984C99.2616 66.9984 99.2896 67.0116 99.3048 67.0116C100.186 67.3112 101.183 67.4244 102.135 67.4384C102.177 67.438 102.236 67.4528 102.278 67.438Z" fill="#0E538C"/>
<path d="M97.6097 59.4124C97.4961 59.9252 97.0969 61.6328 96.5997 64.3216V64.3364C96.5573 64.5356 96.5285 64.7347 96.4857 64.9479V64.9624C95.6745 69.388 94.6365 76.1611 93.9681 84.4719C93.7977 86.7063 93.9101 89.4387 94.1673 92.4131C93.2276 91.9896 92.2833 91.5765 91.3345 91.174C90.9509 91.0032 90.5797 90.8615 90.2397 90.7199C89.0997 90.2639 88.5021 89.9364 87.8481 89.6088C87.8065 89.4952 87.7769 89.368 87.7341 89.254C87.5349 88.6276 87.3505 88.0296 87.1657 87.49C86.4677 85.3264 85.9417 83.9456 85.9417 83.9456C85.9417 83.9456 85.8569 83.2208 85.7857 82.0112C86.2693 80.9148 86.7533 79.9471 87.0953 79.4219C88.0905 77.9123 94.0665 69.1755 91.7041 64.2943C91.459 63.7859 91.1216 63.3274 90.7089 62.9424C90.4403 62.677 90.1386 62.4475 89.8113 62.2596C89.0021 61.7612 85.8105 62.3252 83.9893 63.108C87.2909 59.962 92.9009 59.3708 93.9253 59.4424V59.4132H97.6097V59.4124ZM95.9837 109.288H86.8249C87.1001 108.389 87.3717 107.468 87.6249 106.543C88.4405 103.612 89.1153 100.637 89.3425 98.2192C89.8093 98.3888 90.2673 98.5456 90.7245 98.702C92.3749 99.284 93.8821 99.8411 95.0177 100.254C95.1201 101.188 95.2317 102.125 95.3409 103.053C95.4401 103.935 95.5417 104.812 95.6317 105.676C95.7665 106.91 95.8877 108.12 95.9837 109.288Z" fill="#2A94F4"/>
<path d="M102.278 58.9433V67.4385C102.236 67.4533 102.178 67.4385 102.134 67.4385C101.182 67.4245 100.185 67.3113 99.3044 67.0117C99.2896 67.0117 99.2616 66.9985 99.2476 66.9985C97.966 66.5565 96.926 65.7597 96.5996 64.3369V64.3221C97.0968 61.6333 97.4964 59.9261 97.6096 59.4129H97.8092V59.1429C97.8092 58.9725 97.824 58.8157 97.824 58.6589C97.8376 58.1465 97.8376 57.6629 97.8516 57.1929V56.5957C98.264 57.1077 98.6772 57.5353 99.104 57.8621C99.2476 57.9905 99.3892 58.0897 99.53 58.1753C99.6448 58.2605 99.7584 58.3305 99.872 58.3885H99.8856C100.583 58.7873 101.268 58.9577 101.95 58.9577C102.064 58.9577 102.177 58.9577 102.278 58.9433Z" fill="#F4C7B1"/>
<path d="M106.205 96.6108C106.105 97.2368 105.693 97.7064 105.693 97.7064C105.693 97.7064 105.934 98.5312 105.38 99.072C105.38 99.072 105.565 99.8544 104.839 100.367C104.839 100.367 105.01 101.136 104.44 101.463C104.44 101.463 103.202 101.62 102.748 101.535C100.908 101.116 99.0723 100.68 97.2408 100.225L98.45 95.1444V95.1308C98.9768 94.7752 99.474 94.4468 99.6312 94.3476C100.016 94.1192 101.325 94.1912 102.675 94.6176C103.986 95.0308 105.452 95.614 105.864 95.8416C106.078 95.9556 106.29 95.9992 106.205 96.6108Z" fill="#EEA886"/>
<path d="M98.6068 94.4755L98.4496 95.1307V95.1443L97.2404 100.225L97.0556 101.008C97.0556 101.008 96.272 100.709 95.0184 100.253C93.8808 99.8407 92.3736 99.2863 90.7228 98.7031C90.2672 98.5459 89.8108 98.3891 89.3432 98.2195C86.1124 97.1083 82.6964 95.9559 80.8464 95.5291C76.8192 94.5895 74.1428 93.0815 72.834 91.8155C71.54 90.5491 75.9224 79.9903 77.2184 77.6847C78.4992 75.3791 80.006 70.3419 81.8428 65.9167C82.6252 64.0375 83.9192 62.9423 85.272 62.3735C87.0944 61.5903 89.0012 61.7607 89.8104 62.2591C90.1379 62.4469 90.4396 62.6764 90.708 62.9419C91.1207 63.3269 91.4581 63.7854 91.7032 64.2939C94.0656 69.1751 88.0896 77.9119 87.0944 79.4215C86.7524 79.9467 86.2684 80.9147 85.7848 82.0107C84.618 84.5427 83.3656 87.7447 83.3656 87.7447C85.9692 88.6707 86.9508 89.1535 87.8472 89.6083C88.5012 89.9359 89.0988 90.2635 90.2388 90.7195C90.5788 90.8611 90.95 91.0027 91.3336 91.1735C92.216 91.5447 93.2124 91.9851 94.1664 92.4127C95.652 93.0884 97.1321 93.776 98.6068 94.4755Z" fill="#2A94F4"/>
<path d="M112.015 46.2975L111.892 40.7215C111.874 39.7911 111.892 38.8695 111.76 38.0067C111.628 37.1315 111.391 36.2747 111.023 35.4815C110.3 33.8915 109.086 32.5495 107.562 31.6983C106.04 30.8339 104.269 30.4411 102.503 30.4483C100.737 30.4411 98.9629 30.8339 97.4465 31.6983C95.9193 32.5495 94.7061 33.8915 93.9805 35.4815C93.6149 36.2743 93.3777 37.1315 93.2461 38.0067C93.1137 38.8787 93.1269 39.7791 93.1145 40.7215L92.9897 46.2975H92.2909L92.1713 40.7215C92.1601 39.8071 92.1181 38.8443 92.2413 37.8719C92.3629 36.9087 92.5993 35.9479 92.9901 35.0443C93.7469 33.2215 95.1609 31.6763 96.8717 30.6991C98.5849 29.7067 100.563 29.2595 102.503 29.2495C104.445 29.2595 106.421 29.7067 108.134 30.6991C109.846 31.6763 111.258 33.2215 112.013 35.0443C112.404 35.9479 112.643 36.9087 112.767 37.8719C112.888 38.8519 112.848 39.7979 112.837 40.7215L112.716 46.2975H112.015Z" fill="#0E538C"/>
<path d="M92.8492 49.3254C91.5944 49.3254 91.278 48.4258 91.278 47.3146V43.7094C91.278 42.5994 91.5944 41.6978 92.8492 41.6978H93.1492V49.3254H92.8492Z" fill="#0B4870"/>
<path d="M93.1492 41.698H93.7976V49.3256H93.1492V41.698Z" fill="#2A94F4"/>
<path d="M112.347 49.3254C113.603 49.3254 113.922 48.4258 113.922 47.3146V43.7094C113.922 42.5994 113.603 41.6978 112.347 41.6978H112.047V49.3254H112.347Z" fill="#0B4870"/>
<path d="M111.398 41.698H112.047V49.3256H111.398V41.698Z" fill="#2A94F4"/>
<path d="M102.968 56.276V55.5764C105.862 55.5764 111.375 51.4632 111.375 49.3252H112.073C112.073 52.0316 105.975 56.276 102.968 56.276Z" fill="#CCE9FF"/>
<path d="M103.433 56.9032H102.501C101.728 56.9032 101.102 56.4672 101.102 55.926C101.102 55.3868 101.728 54.9512 102.501 54.9512H103.433C104.205 54.9512 104.831 55.3872 104.831 55.926C104.831 56.4672 104.205 56.9032 103.433 56.9032Z" fill="#0B4870"/>
<path d="M78.0092 18.5785V24.1037L77.976 31.6041L77.9316 40.6633L77.9036 47.3465L71.2456 40.6377L69.214 40.6305L42.2728 40.5045C37.7212 39.6165 34.2864 35.6109 34.2864 30.8081V18.5785C34.2864 13.5053 38.1224 9.31527 43.0496 8.76367L70.0544 8.88807C74.588 9.78287 78.0092 13.7809 78.0092 18.5785Z" fill="#2A94F4"/>
<path opacity="0.8" d="M69.6104 18.8436C69.6106 19.0341 69.5732 19.2228 69.5004 19.3989C69.4277 19.575 69.3209 19.735 69.1863 19.8698C69.0517 20.0047 68.8919 20.1117 68.7159 20.1847C68.54 20.2578 68.3513 20.2955 68.1608 20.2956H43.3268C43.1362 20.2956 42.9474 20.2581 42.7713 20.1851C42.5952 20.1121 42.4351 20.0051 42.3004 19.8703C42.1656 19.7354 42.0587 19.5754 41.9858 19.3992C41.913 19.2231 41.8755 19.0343 41.8756 18.8436C41.8756 18.6531 41.9131 18.4644 41.9861 18.2883C42.059 18.1123 42.1659 17.9523 42.3007 17.8176C42.4354 17.6829 42.5954 17.576 42.7715 17.5031C42.9476 17.4303 43.1363 17.3928 43.3268 17.3928H68.1608C68.9608 17.3928 69.6104 18.042 69.6104 18.8436ZM69.6104 24.2468C69.6102 24.6315 69.4575 25.0003 69.1858 25.2726C68.914 25.5449 68.5455 25.6983 68.1608 25.6992H43.3268C42.9419 25.6985 42.5731 25.5452 42.3011 25.2729C42.029 25.0007 41.876 24.6317 41.8756 24.2468C41.8756 24.0562 41.9131 23.8674 41.986 23.6913C42.0589 23.5152 42.1657 23.3551 42.3005 23.2203C42.4352 23.0854 42.5952 22.9785 42.7713 22.9055C42.9474 22.8325 43.1362 22.7949 43.3268 22.7948H68.1608C68.3513 22.795 68.54 22.8327 68.7159 22.9057C68.8919 22.9788 69.0517 23.0858 69.1863 23.2206C69.3209 23.3554 69.4277 23.5155 69.5004 23.6915C69.5732 23.8676 69.6106 24.0563 69.6104 24.2468ZM62.0236 29.6496C62.0236 30.4456 61.3716 31.0976 60.57 31.0976H43.3252C42.9415 31.0972 42.5736 30.9445 42.3024 30.6729C42.0311 30.4014 41.8788 30.0334 41.8788 29.6496C41.8788 29.2484 42.0368 28.8876 42.3008 28.624C42.4347 28.4884 42.5942 28.3807 42.7701 28.3071C42.9459 28.2334 43.1346 28.1954 43.3252 28.1952H60.57C60.9555 28.1956 61.3251 28.349 61.5977 28.6217C61.8702 28.8944 62.0234 29.2641 62.0236 29.6496Z" fill="#CCE9FF"/>
</g>
<defs>
<clipPath id="clip0_22_914">
<rect width="200" height="133" fill="white"/>
</clipPath>
</defs>
</svg>
