<svg width="197" height="51" viewBox="0 0 197 51" fill="none" xmlns="http://www.w3.org/2000/svg">
<path d="M64.9691 35H62.1758L60.6184 30.7234H53.771L52.2136 35H49.4944L55.6497 18.6848H58.8138L64.9691 35ZM54.5126 28.5728H59.8768L57.207 20.959L54.5126 28.5728ZM74.512 18.6848C76.2589 18.6848 77.6432 19.1215 78.665 19.995C79.7032 20.8684 80.2223 22.0467 80.2223 23.5299C80.2223 25.0626 79.7032 26.2491 78.665 27.0896C77.6432 27.9136 76.2589 28.3256 74.512 28.3256L74.2648 28.4739H70.4826V35H67.8623V18.6848H74.512ZM74.3142 26.2738C75.3854 26.2738 76.1765 26.0596 76.6874 25.6311C77.2147 25.1862 77.4784 24.5105 77.4784 23.6041C77.4784 22.7142 77.2147 22.0467 76.6874 21.6018C76.1765 21.1568 75.3854 20.9343 74.3142 20.9343H70.4826V26.2738H74.3142ZM75.8716 26.8177L81.1864 35H78.1458L73.5974 27.8559L75.8716 26.8177ZM97.8481 30.674C97.5185 31.6628 97.0241 32.5033 96.3649 33.1954C95.7057 33.8711 94.9311 34.382 94.0412 34.7281C93.1513 35.0742 92.1707 35.2472 91.0995 35.2472C89.5339 35.2472 88.1743 34.9094 87.0207 34.2337C85.8671 33.558 84.9772 32.5939 84.351 31.3414C83.7247 30.089 83.4116 28.5893 83.4116 26.8424C83.4116 25.0955 83.7247 23.5958 84.351 22.3434C84.9772 21.0909 85.8671 20.1268 87.0207 19.4511C88.1743 18.7754 89.5257 18.4376 91.0748 18.4376C92.146 18.4376 93.1101 18.5859 93.967 18.8826C94.8405 19.1792 95.5821 19.6242 96.1918 20.2174C96.8016 20.8107 97.2713 21.5523 97.6009 22.4422L95.1042 23.5546C94.7746 22.5823 94.2966 21.8737 93.6704 21.4287C93.0442 20.9673 92.2284 20.7366 91.2231 20.7366C90.2178 20.7366 89.3362 20.9755 88.5781 21.4534C87.82 21.9314 87.2267 22.6235 86.7982 23.5299C86.3862 24.4363 86.1802 25.5405 86.1802 26.8424C86.1802 28.1278 86.378 29.232 86.7735 30.1549C87.169 31.0613 87.7376 31.7534 88.4792 32.2314C89.2208 32.7093 90.1107 32.9482 91.149 32.9482C92.1542 32.9482 93.0194 32.6928 93.7446 32.1819C94.4862 31.6546 95.0135 30.8718 95.3266 29.8335L97.8481 30.674ZM114.227 18.6848V28.7458C114.227 30.9047 113.659 32.528 112.522 33.6157C111.385 34.7034 109.728 35.2472 107.553 35.2472C105.411 35.2472 103.763 34.7034 102.609 33.6157C101.472 32.528 100.903 30.9047 100.903 28.7458V18.6848H103.548V28.4245C103.548 29.9571 103.878 31.0942 104.537 31.8358C105.196 32.5774 106.202 32.9482 107.553 32.9482C108.921 32.9482 109.934 32.5774 110.594 31.8358C111.253 31.0942 111.582 29.9571 111.582 28.4245V18.6848H114.227ZM124.313 18.4376C125.779 18.4376 127.048 18.7178 128.12 19.2781C129.191 19.8219 130.097 20.6294 130.839 21.7006L129.059 23.4063C128.433 22.4505 127.724 21.7666 126.933 21.3546C126.159 20.9261 125.236 20.7118 124.164 20.7118C123.373 20.7118 122.722 20.819 122.212 21.0332C121.701 21.2474 121.322 21.5358 121.074 21.8984C120.844 22.2445 120.728 22.64 120.728 23.085C120.728 23.5958 120.901 24.0408 121.247 24.4198C121.61 24.7989 122.277 25.0955 123.25 25.3098L126.562 26.0514C128.144 26.3974 129.265 26.9248 129.924 27.6334C130.583 28.3421 130.913 29.2402 130.913 30.3279C130.913 31.3332 130.641 32.2066 130.097 32.9482C129.553 33.6898 128.795 34.2584 127.823 34.6539C126.867 35.0494 125.738 35.2472 124.436 35.2472C123.283 35.2472 122.245 35.0989 121.322 34.8022C120.399 34.5056 119.591 34.1018 118.899 33.591C118.207 33.0801 117.638 32.495 117.193 31.8358L119.023 30.0066C119.369 30.5834 119.805 31.1025 120.333 31.5639C120.86 32.0089 121.47 32.355 122.162 32.6022C122.871 32.8494 123.654 32.973 124.511 32.973C125.269 32.973 125.92 32.8823 126.463 32.701C127.024 32.5198 127.444 32.2561 127.724 31.91C128.021 31.5474 128.169 31.119 128.169 30.6246C128.169 30.1466 128.004 29.7264 127.675 29.3638C127.362 29.0013 126.768 28.7211 125.895 28.5234L122.31 27.7076C121.322 27.4934 120.506 27.1885 119.863 26.793C119.22 26.3974 118.743 25.9195 118.429 25.3592C118.116 24.7824 117.96 24.1397 117.96 23.431C117.96 22.5082 118.207 21.6759 118.701 20.9343C119.212 20.1762 119.946 19.5747 120.901 19.1298C121.857 18.6683 122.994 18.4376 124.313 18.4376ZM142.769 27.2626V29.7099H134.339V27.2626H142.769ZM152.316 18.4376C153.783 18.4376 155.052 18.7178 156.123 19.2781C157.194 19.8219 158.1 20.6294 158.842 21.7006L157.062 23.4063C156.436 22.4505 155.727 21.7666 154.936 21.3546C154.162 20.9261 153.239 20.7118 152.168 20.7118C151.377 20.7118 150.726 20.819 150.215 21.0332C149.704 21.2474 149.325 21.5358 149.078 21.8984C148.847 22.2445 148.731 22.64 148.731 23.085C148.731 23.5958 148.905 24.0408 149.251 24.4198C149.613 24.7989 150.281 25.0955 151.253 25.3098L154.565 26.0514C156.147 26.3974 157.268 26.9248 157.927 27.6334C158.587 28.3421 158.916 29.2402 158.916 30.3279C158.916 31.3332 158.644 32.2066 158.1 32.9482C157.557 33.6898 156.798 34.2584 155.826 34.6539C154.87 35.0494 153.741 35.2472 152.439 35.2472C151.286 35.2472 150.248 35.0989 149.325 34.8022C148.402 34.5056 147.594 34.1018 146.902 33.591C146.21 33.0801 145.641 32.495 145.197 31.8358L147.026 30.0066C147.372 30.5834 147.809 31.1025 148.336 31.5639C148.863 32.0089 149.473 32.355 150.165 32.6022C150.874 32.8494 151.657 32.973 152.514 32.973C153.272 32.973 153.923 32.8823 154.467 32.701C155.027 32.5198 155.447 32.2561 155.727 31.91C156.024 31.5474 156.172 31.119 156.172 30.6246C156.172 30.1466 156.007 29.7264 155.678 29.3638C155.365 29.0013 154.771 28.7211 153.898 28.5234L150.314 27.7076C149.325 27.4934 148.509 27.1885 147.866 26.793C147.224 26.3974 146.746 25.9195 146.433 25.3592C146.119 24.7824 145.963 24.1397 145.963 23.431C145.963 22.5082 146.21 21.6759 146.704 20.9343C147.215 20.1762 147.949 19.5747 148.905 19.1298C149.86 18.6683 150.997 18.4376 152.316 18.4376ZM175.988 18.6848L168.72 26.5458L168.423 26.5705L164.196 31.119L163.949 28.2267L172.749 18.6848H175.988ZM165.259 18.6848V35H162.614V18.6848H165.259ZM169.264 24.5187L176.136 35H173.021L167.163 26.0019L169.264 24.5187Z" fill="#081017"/>
<path d="M44 18.3138C44 26.8734 38.1299 34.0626 30.2005 36.078V11.5057H26.1406V36.5543H23.0113V16.5843H18.944V36.5543H15.9027V22.6742H11.8354V50.8594H0V4.90363e-06H25.6862C35.7995 -0.00732354 44 8.20054 44 18.3138Z" fill="#081017"/>
</svg>
